SporniketNostalgieSansMono-Bold.sfdir
StartChar: .notdef
Encoding: 0 0 12
Width: 320
Flags: W
TeX: 78 0
HStem: 120 80<129.053 190.926> 280 80<129.053 190.983>
VStem: 40 80<209.053 270.947> 200 80<209.03 270.914>
LayerCount: 2
Fore
SplineSet
140 280 m 22
 135.311 280.041 129.217 277.416 125.9 274.1 c 4
 122.584 270.783 120 264.69 120 260 c 14
 120 220 l 22
 120 215.31 122.584 209.217 125.9 205.9 c 4
 129.217 202.584 135.31 200 140 200 c 14
 180 200 l 22
 184.69 200 190.732 202.636 194.1 205.9 c 4
 197.468 209.164 200 215.31 200 220 c 14
 200 260 l 22
 200 264.69 197.334 270.704 194.1 274.1 c 4
 190.865 277.496 184.69 280 180 280 c 14
 140 280 l 22
140 360 m 14
 180 360 l 22
 203.47 360 234.404 347.596 251 331 c 4
 267.596 314.404 280 283.47 280 260 c 14
 280 220 l 22
 280 196.53 267.596 165.596 251 149 c 4
 234.404 132.404 203.47 120 180 120 c 14
 140 120 l 22
 116.53 120 87.5957 134.404 71 151 c 4
 54.4043 167.596 40 196.53 40 220 c 14
 40 260 l 22
 40 283.47 54.4043 314.404 71 331 c 4
 87.5957 347.596 116.53 360 140 360 c 14
EndSplineSet
EndChar
StartChar: exclam
Encoding: 33 33 139
Width: 320
Flags: HW
HStem: -240 21G<120 200> 220 20G<120 200>
VStem: 120 80<-240 240>
LayerCount: 2
Fore
SplineSet
200 480 m 17
 200 240 l 1
 200 217.7 189.973 179.946 180 160 c 9
 140 160 l 17
 130.027 179.946 120 217.7 120 240 c 1
 120 480 l 9
 200 480 l 17
EndSplineSet
Refer: 58 46 S 1 0 0 1 0 0 2
EndChar
StartChar: numbersign
Encoding: 35 35 67
Width: 320
Flags: HW
HStem: 160 80<0 320> 320 80<0 320> 460 20G<40 120 200 280>
VStem: 40 80<80 480> 200 80<80 480>
LayerCount: 2
Fore
SplineSet
280 480 m 29
 280 80 l 29
 200 80 l 29
 200 480 l 29
 280 480 l 29
160 480 m 25
 160 80 l 25
 80 80 l 25
 80 480 l 25
 160 480 l 25
40 400 m 25
 320 400 l 29
 320 320 l 29
 40 320 l 25
 40 400 l 25
40 240 m 25
 320 240 l 29
 320 160 l 29
 40 160 l 25
 40 240 l 25
EndSplineSet
EndChar
StartChar: dollar
Encoding: 36 36 163
Width: 320
Flags: HW
HStem: 880 80<-10.9475 30> 1040 80<-10.9473 140>
VStem: -100 80<969.052 1030.95>
LayerCount: 2
Fore
SplineSet
120 400 m 21
 120 480 l 5
 120 502.3 130.027 540.055 140 560 c 13
 180 560 l 21
 189.973 540.055 200 502.3 200 480 c 5
 200 400 l 13
 120 400 l 21
200 160 m 21
 200 80 l 5
 200 57.7002 189.973 19.9453 180 0 c 13
 140 0 l 21
 130.027 19.9453 120 57.7002 120 80 c 5
 120 160 l 13
 200 160 l 21
130 240.794 m 1
 108.766 244.024 85.3018 256.698 71 271 c 0
 54.4043 287.596 40 316.53 40 340 c 2
 40 380 l 2
 40 403.47 54.4043 434.404 71 451 c 0
 87.5957 467.596 116.53 480 140 480 c 2
 280 480 l 1
 280 400 l 1
 140 400 l 2
 135.311 400 129.217 397.416 125.9 394.1 c 0
 122.584 390.783 120 384.69 120 380 c 2
 120 340 l 2
 120 335.31 122.584 329.217 125.9 325.9 c 0
 129.217 322.584 135.31 320 140 320 c 2
 180 320 l 1
 190 320 l 1
 190 319.206 l 1
 211.234 315.976 234.698 303.302 249 289 c 0
 265.596 272.404 280 243.47 280 220 c 2
 280 180 l 2
 280 156.53 265.596 125.596 249 109 c 0
 232.404 92.4043 203.47 80 180 80 c 2
 40 80 l 1
 40 160 l 1
 180 160 l 2
 184.689 160 190.783 162.584 194.1 165.9 c 0
 197.416 169.217 200 175.31 200 180 c 2
 200 220 l 2
 200 224.69 197.416 230.783 194.1 234.1 c 0
 190.783 237.416 184.69 240 180 240 c 2
 140 240 l 1
 130 240 l 1
 130 240.794 l 1
EndSplineSet
EndChar
StartChar: ampersand
Encoding: 38 38 55
Width: 320
Flags: HW
HStem: 0 80<106.932 160 246.888 320> 240 80<95.31 160 240 300> 400 80<86.841 160>
VStem: 0 80<86.8584 166.94 326.858 390.051> 160 80<89.9141 240 320 480>
LayerCount: 2
Fore
SplineSet
240 320 m 29
 320 320 l 21
 320 297.7 309.973 259.946 300 240 c 5
 240 240 l 5
 240 100 l 6
 240 95.3096 242.584 89.2168 245.9 85.9004 c 4
 249.216 82.584 255.31 80 260 80 c 14
 320 80 l 29
 320 0 l 29
 260 0 l 22
 236.53 0 205.596 12.4043 189 29 c 4
 172.404 45.5957 160 76.5303 160 100 c 6
 160 240 l 5
 120 240 l 1
 120 262.3 130.027 300.054 140 320 c 1
 160 320 l 5
 160 480 l 13
 240 480 l 29
 240 320 l 29
160 0 m 5
 140 0 l 2
 116.53 0 85.5957 12.4043 69 29 c 0
 52.4043 45.5957 40 76.5303 40 100 c 2
 40 120 l 2
 40 166.94 52.4043 227.8 69 261 c 0
 69.9014 262.802 70.8428 264.581 71.8252 266.337 c 1
 70.8428 267.211 69.9014 268.099 69 269 c 0
 52.4043 285.596 40 316.53 40 340 c 2
 40 380 l 2
 40 403.47 52.4043 434.404 69 451 c 0
 85.5957 467.596 116.53 480 140 480 c 2
 160 480 l 5
 160 400 l 5
 140 400 l 2
 135.31 400 129.135 397.496 125.9 394.1 c 0
 122.666 390.704 120 384.69 120 380 c 2
 120 340 l 2
 120 335.31 122.533 329.165 125.9 325.9 c 0
 129.268 322.636 135.31 320 140 320 c 2
 160 320 l 5
 160 240 l 5
 140 240 l 2
 135.31 240 129.135 225.24 125.9 204.84 c 0
 122.666 184.44 120 148.14 120 120 c 2
 120 100 l 2
 120 95.3096 122.533 89.165 125.9 85.9004 c 0
 129.268 82.6357 135.315 80.2344 140 80 c 2
 160 79 l 5
 160 0 l 5
EndSplineSet
EndChar
StartChar: quotesingle
Encoding: 39 39 141
Width: 320
Flags: HW
HStem: 320 160<140 180>
VStem: 120 80<371.514 480>
LayerCount: 2
Fore
SplineSet
200 480 m 21
 200 400 l 5
 200 377.7 189.973 339.945 180 320 c 13
 140 320 l 21
 130.027 339.945 120 377.7 120 400 c 5
 120 480 l 13
 200 480 l 21
EndSplineSet
EndChar
StartChar: parenright
Encoding: 41 41 154
Width: 320
Flags: HW
HStem: 0 480<80 117.56 80 80 80 80> 0 40<80 124.761> 440 40<80 124.761>
VStem: 80 160<40 320 40 40> 160 80<133.111 346.889>
LayerCount: 2
Fore
SplineSet
80 40 m 5x50
 98.7803 40 123.281 55.2402 136.56 75.1602 c 5
 149.839 95.0801 160 141.22 160 160 c 6
 160 320 l 6x48
 160 338.78 149.839 384.92 136.56 404.84 c 5
 123.281 424.76 98.7803 440 80 440 c 5x70
 80 480 l 1
 117.56 480 166.561 459.679 193.12 433.12 c 0
 219.679 406.561 240 357.56 240 320 c 2
 240 160 l 2
 240 122.44 219.679 73.4385 193.12 46.8799 c 0
 166.561 20.3213 117.56 0 80 0 c 1x90
 80 40 l 5x50
EndSplineSet
EndChar
StartChar: asterisk
Encoding: 42 42 65
Width: 320
Flags: HMW
VStem: 0 320<200 280>
LayerCount: 2
Fore
SplineSet
293.108 416.774 m 29
 98.4463 27.4492 l 29
 26.8916 63.2256 l 29
 221.554 452.551 l 29
 293.108 416.774 l 29
0 280 m 29
 320 280 l 29
 320 200 l 29
 0 200 l 29
 0 280 l 29
98.4463 452.551 m 29
 293.108 63.2256 l 29
 221.554 27.4492 l 29
 26.8916 416.774 l 29
 98.4463 452.551 l 29
EndSplineSet
EndChar
StartChar: hyphen
Encoding: 45 45 63
Width: 320
VWidth: 960
Flags: HW
HStem: 0 21G<120 200> 200 80<40 280> 460 20G<120 200>
VStem: 120 80<0 480>
LayerCount: 2
Fore
SplineSet
40 280 m 29
 280 280 l 29
 280 200 l 29
 40 200 l 29
 40 280 l 29
EndSplineSet
EndChar
StartChar: period
Encoding: 46 46 58
Width: 320
Flags: HMW
HStem: 6.66797 106.664<222.313 257.687>
LayerCount: 2
Fore
SplineSet
160 80 m 0
 169.39 80 181.66 74.9395 188.3 68.2998 c 0
 194.939 61.6602 200 49.3896 200 40 c 0
 200 30.6104 194.939 18.3398 188.3 11.7002 c 0
 181.66 5.06055 169.39 0 160 0 c 0
 150.61 0 138.34 5.06055 131.7 11.7002 c 0
 125.061 18.3398 120 30.6104 120 40 c 0
 120 49.3896 125.061 61.6602 131.7 68.2998 c 0
 138.34 74.9395 150.61 80 160 80 c 0
EndSplineSet
EndChar
StartChar: zero
Encoding: 48 48 7
Width: 320
Flags: HW
TeX: 122 0
HStem: 0 80<128.265 180> 400 80<128.265 180>
VStem: 40 80<100 391.735> 200 80<88.2651 380>
LayerCount: 2
Fore
SplineSet
89.2891 197.573 m 29
 202.427 310.711 l 29
 230.711 282.427 l 29
 117.573 169.289 l 29
 89.2891 197.573 l 29
EndSplineSet
Refer: 0 79 N 1 0 0 1 0 0 2
EndChar
StartChar: one
Encoding: 49 49 25
Width: 320
Flags: HW
HStem: 0 21G<120 200> 460 20G<120 200 120 200>
VStem: 120 80<0 480>
LayerCount: 2
Fore
SplineSet
120 480 m 13
 200 480 l 21
 200 457.7 189.973 419.946 180 400 c 5
 140 320 l 5
 60 320 l 5
 100 400 l 5
 109.973 419.946 120 457.7 120 480 c 13
120 480 m 29
 200 480 l 29
 200 0 l 29
 120 0 l 29
 120 480 l 29
EndSplineSet
EndChar
StartChar: eight
Encoding: 56 56 71
Width: 320
Flags: HW
HStem: 0 80<129.074 190.926> 240 80<133.405 186.595> 400 80<129.017 190.983>
VStem: 40 80<89.0303 185.669 329.03 390.913> 200 80<89.0301 185.669 329.03 390.914>
LayerCount: 2
Fore
SplineSet
140 0 m 2
 116.53 0 85.5957 12.4043 69 29 c 0
 52.4043 45.5957 40 76.5303 40 100 c 2
 40 120 l 2
 40 166.94 52.4043 227.8 69 261 c 0
 69.9014 262.802 70.8428 264.581 71.8252 266.337 c 1
 70.8428 267.211 69.9014 268.099 69 269 c 0
 52.4043 285.596 40 316.53 40 340 c 2
 40 380 l 2
 40 403.47 52.4043 434.404 69 451 c 0
 85.5957 467.596 116.53 480 140 480 c 2
 180 480 l 2
 203.47 480 234.404 467.596 251 451 c 0
 267.596 434.404 280 403.47 280 380 c 2
 280 340 l 2
 280 316.53 267.596 285.596 251 269 c 0
 250.099 268.099 249.157 267.211 248.175 266.337 c 1
 249.157 264.581 250.099 262.802 251 261 c 0
 267.596 227.8 280 166.94 280 120 c 2
 280 100 l 2
 280 76.5303 267.596 45.5957 251 29 c 0
 234.404 12.4043 203.47 0 180 0 c 2
 140 0 l 2
140 80 m 2
 180 80 l 2
 184.69 80 190.732 82.6362 194.1 85.9004 c 0
 197.467 89.1646 200 95.3096 200 100 c 2
 200 120 l 2
 200 148.14 197.334 184.44 194.1 204.84 c 0
 190.865 225.24 184.69 240 180 240 c 2
 140 240 l 2
 135.31 240 129.135 225.24 125.9 204.84 c 0
 122.666 184.44 120 148.14 120 120 c 2
 120 100 l 2
 120 95.3096 122.533 89.165 125.9 85.9004 c 0
 129.268 82.6357 135.31 80 140 80 c 2
140 320 m 2
 180 320 l 2
 184.69 320 190.732 322.636 194.1 325.9 c 0
 197.467 329.165 200 335.31 200 340 c 2
 200 380 l 2
 200 384.69 197.334 390.704 194.1 394.1 c 0
 190.865 397.496 184.69 400 180 400 c 2
 140 400 l 2
 135.31 400 129.135 397.496 125.9 394.1 c 0
 122.666 390.704 120 384.69 120 380 c 2
 120 340 l 2
 120 335.31 122.533 329.165 125.9 325.9 c 0
 129.268 322.636 135.31 320 140 320 c 2
EndSplineSet
EndChar
StartChar: less
Encoding: 60 60 143
Width: 320
VWidth: 960
Flags: MW
HStem: 40 400<140 250 140 140>
LayerCount: 2
Fore
SplineSet
130 240 m 1
 290 80 l 5
 180 80 l 5
 20 240 l 1
 180 400 l 1
 290 400 l 1
 130 240 l 1
EndSplineSet
EndChar
StartChar: greater
Encoding: 62 62 144
Width: 320
VWidth: 960
Flags: MW
HStem: 40 400<70 180 70 70>
LayerCount: 2
Fore
SplineSet
190 240 m 5
 30 400 l 5
 140 400 l 5
 300 240 l 5
 140 80 l 5
 30 80 l 5
 190 240 l 5
EndSplineSet
EndChar
StartChar: at
Encoding: 64 64 137
Width: 320
Flags: HW
HStem: 120 80<168.265 220> 280 80<168.265 220> 400 80<140 231.735>
VStem: 80 80<220 271.735> 240 80<120 391.735>
LayerCount: 2
Fore
SplineSet
220 360 m 14
 220 360 l 22
 243.47 360 274.404 347.596 291 331 c 4
 307.596 314.404 320 283.47 320 260 c 14
 320 220 l 22
 320 196.53 307.596 165.596 291 149 c 4
 274.404 132.404 243.47 120 220 120 c 14
 220 120 l 22
 220 120 167.596 134.404 151 151 c 4
 134.404 167.596 120 196.53 120 220 c 14
 120 260 l 22
 120 283.47 134.404 314.404 151 331 c 4
 167.596 347.596 220 360 220 360 c 14
220 280 m 22
 220 280 209.217 277.416 205.9 274.1 c 4
 202.584 270.783 200 264.69 200 260 c 14
 200 220 l 22
 200 215.31 202.584 209.217 205.9 205.9 c 4
 209.217 202.584 220 200 220 200 c 14
 220 200 l 22
 224.69 200 230.732 202.636 234.1 205.9 c 4
 237.467 209.165 240 215.31 240 220 c 14
 240 260 l 22
 240 264.69 237.334 270.704 234.1 274.1 c 4
 230.865 277.496 224.69 280 220 280 c 14
 220 280 l 22
210 400 m 5
 180 400 l 5
 100 400 l 6
 95.3096 400 89.2168 397.416 85.9004 394.1 c 4
 82.584 390.783 80 384.69 80 380 c 6
 80 100 l 6
 80 95.3096 82.584 89.2168 85.9004 85.9004 c 4
 89.2168 82.584 95.3096 80 100 80 c 6
 240 80 l 6
 262.3 80 300.055 90.0273 320 100 c 5
 320 20 l 5
 300.055 10.0273 262.3 0 240 0 c 6
 100 0 l 6
 76.5303 0 47.5957 14.4043 31 31 c 4
 14.4043 47.5957 0 76.5303 0 100 c 6
 0 380 l 6
 0 403.47 14.4043 434.404 31 451 c 4
 47.5957 467.596 76.5303 480 100 480 c 6
 160 480 l 5
 210 480 l 5
 220 480 l 6
 243.47 480 274.404 467.596 291 451 c 4
 307.596 434.404 320 403.47 320 380 c 6
 320 120 l 5
 260 120 l 5
 250.027 139.945 240 177.7 240 200 c 6
 240 380 l 6
 240 384.69 237.416 390.784 234.1 394.1 c 4
 230.784 397.416 224.69 400 220 400 c 6
 210 400 l 5
EndSplineSet
EndChar
StartChar: A
Encoding: 65 65 34
Width: 320
Flags: HW
HStem: 0 21G<40 120 200 280> 160 80<120 200> 460 20G<140 180>
VStem: 40 80<0 160 240 340> 200 80<0 160 240 356.107>
AnchorPoint: "Top" 160 500 basemark 0
LayerCount: 2
Fore
SplineSet
280 0 m 1
 200 0 l 1
 200 160 l 1
 120 160 l 1
 120 0 l 1
 40 0 l 1
 40 340 l 2
 40 362.3 52.6943 394.114 69.29 410.71 c 2
 140 480 l 1
 180 480 l 1
 250.71 410.71 l 2
 267.306 394.114 280 363.47 280 340 c 2
 280 0 l 1
120 240 m 1
 200 240 l 1
 200 340 l 2
 200 352.39 197.456 350.823 194.14 354.14 c 2
 160 394.14 l 1
 125.86 354.14 l 2
 122.544 350.823 124.69 340 120 340 c 1
 120 240 l 1
EndSplineSet
EndChar
StartChar: C
Encoding: 67 67 45
Width: 320
Flags: HW
HStem: 0 80<129.914 193.082> 400 80<126.889 190.122>
VStem: 40 80<86.8884 390.086> 200 80<89.8907 160 320 393.066>
AnchorPoint: "Bottom" 160 0 basemark 0
LayerCount: 2
Fore
SplineSet
280 160 m 0
 280 100 l 2
 280 76.5303 267.596 45.5957 251 29 c 0
 234.404 12.4043 203.47 0 180 0 c 10
 140 0 l 18
 116.53 0 87.5957 14.4043 71 31 c 0
 54.4043 47.5957 40 76.5303 40 100 c 10
 40 380 l 18
 40 403.47 54.4043 434.404 71 451 c 0
 87.5957 467.596 116.53 480 140 480 c 10
 180 480 l 18
 203.47 480 234.404 467.596 251 451 c 0
 267.596 434.404 280 403.47 280 380 c 2
 280 320 l 0
 200 320 l 0
 200 380 l 2
 200 384.69 197.334 390.704 194.1 394.1 c 0
 190.865 397.496 184.69 400 180 400 c 10
 140 400 l 18
 135.311 400.041 129.217 397.416 125.9 394.1 c 0
 122.584 390.783 120 384.69 120 380 c 10
 120 100 l 18
 120 95.3096 122.584 89.2168 125.9 85.9004 c 0
 129.217 82.584 135.31 80 140 80 c 10
 180 80 l 22
 184.69 80 190.732 82.6357 194.1 85.9004 c 4
 197.468 89.1641 200 95.3096 200 100 c 6
 200 160 l 0
 280 160 l 0
EndSplineSet
EndChar
StartChar: D
Encoding: 68 68 52
Width: 320
Flags: HW
HStem: 0 480<40 120 120 157.56 40 120 40 40>
VStem: 40 80<80 400> 200 80<139.293 160 160 340.707>
LayerCount: 2
Fore
SplineSet
280 160 m 6
 280 122.44 259.679 73.4389 233.12 46.88 c 4
 206.561 20.3211 157.56 0 120 0 c 6
 40 0 l 1
 40 480 l 1
 120 480 l 1
 157.56 480 206.561 459.679 233.12 433.12 c 0
 259.679 406.561 280 357.56 280 320 c 2
 280 160 l 6
120 80 m 1
 138.78 80 163.281 90.1605 176.56 103.44 c 1
 189.839 116.719 200 141.22 200 160 c 2
 200 320 l 2
 200 338.78 189.839 363.281 176.56 376.56 c 1
 163.281 389.839 138.78 400 120 400 c 2
 120 80 l 1
EndSplineSet
EndChar
StartChar: E
Encoding: 69 69 40
Width: 320
Flags: HW
HStem: 0 80<100 270> 0 480<40 120 60 120 40 40> 240 80<120 220> 400 80<120 260>
VStem: 40 80<0 240 320 400> 80 210<51.5139 80>
AnchorPoint: "Top" 160 500 basemark 0
LayerCount: 2
Fore
SplineSet
80 80 m 13x84
 290 80 l 21
 290 57.7002 279.973 19.9453 270 0 c 13
 100 0 l 21
 90.0273 19.9453 80 57.7002 80 80 c 13x84
EndSplineSet
Refer: 42 70 N 1 0 0 1 0 0 2
EndChar
StartChar: F
Encoding: 70 70 42
Width: 320
Flags: HW
HStem: 0 480<40 120 60 120 40 40> 240 80<120 220> 400 80<120 260>
VStem: 40 80<0 240 320 400>
LayerCount: 2
Fore
SplineSet
60 480 m 1x90
 120 480 l 1x90
 280 480 l 1
 280 457.7 269.973 419.945 260 400 c 1
 120 400 l 1
 120 320 l 1
 240 320 l 1
 240 297.7 229.973 259.945 220 240 c 1
 120 240 l 1x70
 120 0 l 1
 40 0 l 1
 40 480 l 1
 60 480 l 1x90
EndSplineSet
EndChar
StartChar: G
Encoding: 71 71 46
Width: 320
Flags: HW
HStem: 0 80<126.888 190.063> 400 80<129.914 234.307>
VStem: 40 80<89.9141 393.112> 200 80<86.8579 240>
LayerCount: 2
Fore
SplineSet
210 480 m 18
 232.3 480 269.56 468.915 290 460 c 9
 254.2 388.5 l 17
 242.843 393.453 222.39 400 210 400 c 10
 140 400 l 18
 135.311 400 129.217 397.416 125.9 394.1 c 0
 122.584 390.783 120 384.69 120 380 c 10
 120 100 l 18
 120 95.3096 122.584 89.2168 125.9 85.9004 c 0
 129.217 82.584 135.31 80 140 80 c 10
 180 80 l 18
 184.69 80 190.732 82.6357 194.1 85.9004 c 0
 197.468 89.1641 200 95.3096 200 100 c 2
 200 240 l 1
 180 240 l 1
 170.027 259.946 160 297.7 160 320 c 0
 280 320 l 0
 280 100 l 2
 280 76.5303 267.596 45.5957 251 29 c 0
 234.404 12.4043 203.47 0 180 0 c 10
 140 0 l 18
 116.53 0 87.5957 14.4043 71 31 c 0
 54.4043 47.5957 40 76.5303 40 100 c 10
 40 380 l 18
 40 403.47 54.4043 434.404 71 451 c 0
 87.5957 467.596 116.53 480 140 480 c 10
 210 480 l 18
EndSplineSet
EndChar
StartChar: H
Encoding: 72 72 41
Width: 320
Flags: HW
HStem: -160 21G<160 240> 240 80<90 310>
VStem: 160 80<-160 320>
LayerCount: 2
Fore
SplineSet
280 480 m 1
 280 0 l 1
 200 0 l 1
 200 240 l 1
 120 240 l 1
 120 0 l 1
 40 0 l 1
 40 480 l 1
 120 480 l 1
 120 320 l 1
 200 320 l 1
 200 480 l 1
 280 480 l 1
EndSplineSet
EndChar
StartChar: I
Encoding: 73 73 26
Width: 320
Flags: W
HStem: 0 480<120 200 120 200 120 120>
VStem: 120 80<0 480>
AnchorPoint: "Top" 160 500 basemark 0
LayerCount: 2
Fore
SplineSet
200 480 m 29
 200 0 l 29
 120 0 l 29
 120 480 l 29
 200 480 l 29
EndSplineSet
EndChar
StartChar: J
Encoding: 74 74 47
Width: 320
Flags: HW
HStem: 0 80<129.937 193.112> 460 20G<200 280>
VStem: 40 80<86.8579 160> 200 80<89.9141 480>
LayerCount: 2
Fore
SplineSet
280 480 m 29
 280 100 l 18
 280 76.5303 265.596 47.5957 249 31 c 0
 232.404 14.4043 203.47 0 180 0 c 10
 140 0 l 18
 116.53 0 85.5957 12.4043 69 29 c 0
 52.4043 45.5957 40 76.5303 40 100 c 2
 40 160 l 0
 120 160 l 0
 120 100 l 2
 120 95.3096 122.532 89.1641 125.9 85.9004 c 0
 129.268 82.6357 135.31 80 140 80 c 10
 180 80 l 18
 184.69 80 190.783 82.584 194.1 85.9004 c 0
 197.416 89.2168 200 95.3096 200 100 c 10
 200 480 l 25
 280 480 l 29
EndSplineSet
EndChar
StartChar: K
Encoding: 75 75 69
Width: 320
Flags: HW
HStem: 0 480<40 120 280 320 40 40>
VStem: 40 280<9 31.2998 9 480 480 480> 40 80<0 274.44 275.56 480>
LayerCount: 2
Fore
SplineSet
280 480 m 17x80
 280 457.7 269.985 419.939 260 400 c 1
 180 240 l 9
 108.89 275.56 l 17
 188.89 435.56 l 1
 194.431 446.642 200 467.61 200 480 c 1
 280 480 l 17x80
240 9 m 5
 240 21.3896 234.431 43.3584 228.89 54.4404 c 5
 118.89 274.44 l 13
 190 310 l 21
 300 90 l 5
 309.985 70.0605 320 31.2998 320 9 c 5
 320 0 l 5xc0
 240 0 l 5
 240 9 l 5
40 480 m 25
 120 480 l 25
 120 0 l 25
 40 0 l 25xa0
 40 480 l 25
EndSplineSet
EndChar
StartChar: L
Encoding: 76 76 43
Width: 320
Flags: HW
HStem: 0 480<40 120 120 270 40 40> 0 80<100 270>
VStem: 40 80<80 480> 80 40<57.7002 80>
LayerCount: 2
Fore
SplineSet
80 80 m 9x50
 290 80 l 21x50
 290 57.7002 279.973 19.9453 270 0 c 13
 100 0 l 17x90
 90.0273 19.9453 80 57.7002 80 80 c 9x50
120 480 m 25xa0
 120 0 l 25x90
 40 0 l 25
 40 480 l 25
 120 480 l 25xa0
EndSplineSet
EndChar
StartChar: M
Encoding: 77 77 57
Width: 320
Flags: W
HStem: 0 480<40 120 240 320 40 320 40 40>
VStem: 40 80<0 320 359.34 480> 240 80<0 323.107 359.34 480>
LayerCount: 2
Fore
SplineSet
240 0 m 1
 240 323.107 l 1
 200 159.996 l 1
 170 160 l 1
 165.342 250.676 l 13
 165.342 250.676 240 360 240 480 c 5
 320 480 l 1
 320 0 l 1
 240 0 l 1
120 0 m 1
 40 0 l 1
 40 480 l 1
 120 480 l 1
 120 360 194.658 250.676 194.658 250.676 c 17
 190 160 l 1
 160 159.996 l 1
 120 320 l 1
 120 0 l 1
EndSplineSet
EndChar
StartChar: N
Encoding: 78 78 56
Width: 320
Flags: HW
HStem: 0 21G<40 120 200 280> 460 20G<40 120 200 280>
VStem: 40 80<0 281.107 457.274 480> 200 80<0 114.899 150.676 480 0 480 1.53064e-18 1.53064e-18>
AnchorPoint: "Top" 160 500 basemark 0
LayerCount: 2
Fore
SplineSet
200 480 m 1
 280 480 l 1
 280 0 l 1
 200 0 l 1
 200 480 l 1
120 0 m 1
 40 0 l 1
 40 480 l 1
 120 480 l 5
 120 467.22 125.395 446.991 131.11 435.56 c 1
 274.658 150.676 l 1
 203.104 114.899 l 1
 120 281.107 l 1
 120 0 l 1
EndSplineSet
EndChar
StartChar: O
Encoding: 79 79 0
Width: 320
Flags: W
TeX: 79 0
HStem: 0 80<129.053 190.926> 400 80<129.053 190.983>
VStem: 40 80<89.0525 390.947> 200 80<89.0299 390.914>
AnchorPoint: "Top" 160 500 basemark 0
LayerCount: 2
Fore
SplineSet
140 400 m 18
 135.311 400.041 129.217 397.416 125.9 394.1 c 0
 122.584 390.783 120 384.69 120 380 c 10
 120 100 l 18
 120 95.3096 122.584 89.2168 125.9 85.9004 c 0
 129.217 82.584 135.31 80 140 80 c 10
 180 80 l 18
 184.69 80 190.732 82.6357 194.1 85.9004 c 0
 197.468 89.1641 200 95.3096 200 100 c 10
 200 380 l 22
 200 384.69 197.334 390.704 194.1 394.1 c 4
 190.865 397.496 184.69 400 180 400 c 14
 140 400 l 18
140 480 m 10
 180 480 l 22
 203.47 480 234.404 467.596 251 451 c 4
 267.596 434.404 280 403.47 280 380 c 14
 280 100 l 18
 280 76.5303 267.596 45.5957 251 29 c 0
 234.404 12.4043 203.47 0 180 0 c 10
 140 0 l 18
 116.53 0 87.5957 14.4043 71 31 c 0
 54.4043 47.5957 40 76.5303 40 100 c 10
 40 380 l 18
 40 403.47 54.4043 434.404 71 451 c 0
 87.5957 467.596 116.53 480 140 480 c 10
EndSplineSet
EndChar
StartChar: P
Encoding: 80 80 37
Width: 320
Flags: HW
HStem: 160 80<88.265 140> 560 80<88.265 140>
VStem: 0 80<260 551.735> 160 80<248.265 540>
LayerCount: 2
Fore
SplineSet
100 480 m 1
 120 480 l 1
 180 480 l 2
 203.47 480 234.404 467.596 251 451 c 0
 267.596 434.404 280 403.47 280 380 c 2
 280 260 l 2
 280 236.53 267.596 205.596 251 189 c 0
 234.404 172.404 203.47 160 180 160 c 2
 120 160 l 1
 120 0 l 1
 40 0 l 1
 40 260 l 1
 40 380 l 1
 40 480 l 1
 100 480 l 1
120 400 m 1
 120 240 l 1
 180 240 l 2
 184.69 240 190.732 242.636 194.1 245.9 c 0
 197.467 249.165 200 255.31 200 260 c 2
 200 380 l 2
 200 384.69 197.334 390.704 194.1 394.1 c 0
 190.865 397.496 184.69 400 180 400 c 2
 120 400 l 1
EndSplineSet
EndChar
StartChar: Q
Encoding: 81 81 70
Width: 320
Flags: HW
HStem: 0 20<120.132 200.003> 400 80<129.023 190.953>
VStem: 40.0059 240<100 380 100 380 100 100> 200.006 80<89.0525 390.947> 40.0059 80<89.0299 390.914>
LayerCount: 2
Fore
SplineSet
120.003 20 m 5xc0
 200.003 20 l 29
 200.003 -40 l 22
 200.428 -44.6709 202.535 -50.8359 205.903 -54.0996 c 4
 209.271 -57.3643 215.312 -60 220.003 -60 c 5
 229.976 -79.9453 240.003 -111.482 240.003 -133.782 c 5
 212.349 -125.803 184.614 -110.852 166.883 -93.1201 c 4
 140.324 -66.5615 120.003 -17.5596 120.003 20 c 5xc0
140 400 m 18
 135.311 400.041 129.217 397.416 125.9 394.1 c 0
 122.584 390.783 120 384.69 120 380 c 10
 120 100 l 18
 120 95.3096 122.584 89.2168 125.9 85.9004 c 0
 129.217 82.584 135.31 80 140 80 c 10
 180 80 l 18
 184.69 80 190.732 82.6357 194.1 85.9004 c 0
 197.468 89.1641 200 95.3096 200 100 c 10
 200 380 l 18xd8
 200 384.69 197.334 390.704 194.1 394.1 c 0
 190.865 397.496 184.69 400 180 400 c 10
 140 400 l 18
140 480 m 10
 180 480 l 18
 203.47 480 234.404 467.596 251 451 c 0
 267.596 434.404 280 403.47 280 380 c 10
 280 100 l 18
 280 76.5303 267.596 45.5957 251 29 c 0
 234.404 12.4043 203.47 0 180 0 c 10
 140 0 l 18
 116.53 0 87.5957 14.4043 71 31 c 0
 54.4043 47.5957 40 76.5303 40 100 c 10
 40 380 l 18xe0
 40 403.47 54.4043 434.404 71 451 c 0
 87.5957 467.596 116.53 480 140 480 c 10
EndSplineSet
EndChar
StartChar: R
Encoding: 82 82 39
Width: 320
Flags: HW
HStem: -40 21G<60 140> 360 80<140 210.122>
VStem: 60 80<-40 160 240 360> 220 80<249.891 353.066>
LayerCount: 2
Fore
SplineSet
240 9 m 1
 240 21.3896 234.431 43.3584 228.89 54.4404 c 1
 138.89 234.44 l 13
 210 270 l 21
 300 90 l 1
 309.985 70.0605 320 31.2998 320 9 c 1
 320 0 l 1xc0
 240 0 l 1
 240 9 l 1
100 480 m 1
 120 480 l 1
 180 480 l 2
 203.47 480 234.404 467.596 251 451 c 0
 267.596 434.404 280 403.47 280 380 c 2
 280 300 l 2
 280 276.53 267.596 245.596 251 229 c 0
 234.404 212.404 203.47 200 180 200 c 2
 120 200 l 1
 120 0 l 1
 40 0 l 1
 40 300 l 1
 40 380 l 1
 40 480 l 1
 100 480 l 1
120 400 m 1
 120 280 l 1
 180 280 l 2
 184.69 280 190.732 282.636 194.1 285.9 c 0
 197.467 289.165 200 295.31 200 300 c 2
 200 380 l 2
 200 384.69 197.334 390.704 194.1 394.1 c 0
 190.865 397.496 184.69 400 180 400 c 2
 120 400 l 1
EndSplineSet
EndChar
StartChar: T
Encoding: 84 84 33
Width: 320
Flags: HW
HStem: 0 21G<120 200> 400 80<50 270>
VStem: 120 80<0 480>
LayerCount: 2
Fore
SplineSet
30 480 m 9
 290 480 l 17
 290 457.7 279.973 419.946 270 400 c 9
 50 400 l 17
 40.0272 419.946 30 457.7 30 480 c 9
200 480 m 29
 200 0 l 29
 120 0 l 29
 120 480 l 29
 200 480 l 29
EndSplineSet
EndChar
StartChar: V
Encoding: 86 86 35
Width: 320
Flags: HW
HStem: 0 480<40 180 40 40>
VStem: 40 80<217.29 480> 200 80<217.29 480>
LayerCount: 2
Fore
SplineSet
40 480 m 25
 120 480 l 25
 120 240 l 17
 120 227.61 125.569 206.642 131.11 195.56 c 9
 160 137.78 l 1
 189 195 l 5
 194.541 206.082 200 227.61 200 240 c 9
 200 480 l 25
 280 480 l 25
 280 240 l 17
 280 217.7 269.973 179.946 260 160 c 9
 180 0 l 25
 140 0 l 25
 60 160 l 17
 50.0272 179.946 40 217.7 40 240 c 9
 40 480 l 25
EndSplineSet
EndChar
StartChar: W
Encoding: 87 87 44
Width: 320
Flags: W
HStem: 0 480<40 120 240 320 40 320 40 40>
VStem: 40 80<137.78 480> 160 40<217.289 280> 240 80<137.78 480>
CounterMasks: 1 70
LayerCount: 2
Fore
SplineSet
40 480 m 1
 120 480 l 1
 120 240 l 2
 120 214.09 120 137.78 120 137.78 c 17
 149 195 l 6
 154.541 206.082 160 227.61 160 240 c 6
 160 280 l 5
 200 280 l 5
 200 240 l 6
 200 227.61 205.569 206.642 211.11 195.56 c 6
 240 137.78 l 5
 240 240 l 6
 240 480 l 5
 320 480 l 5
 320 240 l 6
 320 0 l 5
 240 0 l 1
 180 120 l 1
 120 0 l 5
 40 0 l 9
 40 0 40 190.784 40 240 c 2
 40 480 l 1
EndSplineSet
EndChar
StartChar: Y
Encoding: 89 89 36
Width: 320
Flags: HW
HStem: 0 480<40 200 40 40>
VStem: 40 80<377.289 480> 120 80<0 200> 200 80<377.009 480>
CounterMasks: 1 70
AnchorPoint: "Top" 160 500 basemark 0
LayerCount: 2
Fore
SplineSet
40 480 m 1
 120 480 l 1
 120 400 l 2
 120 387.61 125.569 366.642 131.11 355.56 c 2
 160 297.78 l 1
 189 355 l 2
 194.541 366.082 200 387.61 200 400 c 2
 200 480 l 1
 280 480 l 1
 280 400 l 2
 280 377.7 269.973 339.946 260 320 c 2
 200 200 l 1
 200 0 l 1
 120 0 l 1
 120 200 l 1
 60 320 l 2
 50.0273 339.946 40 377.7 40 400 c 2
 40 480 l 1
EndSplineSet
EndChar
StartChar: bracketleft
Encoding: 91 91 156
Width: 320
Flags: HW
HStem: 0 80<160 220> 0 480<80 160 80 240 80 80> 400 80<160 220>
VStem: 80 80<80 400>
LayerCount: 2
Fore
SplineSet
100 480 m 1x50
 240 480 l 5x50
 240 457.7 229.973 419.945 220 400 c 1
 160 400 l 1
 160 80 l 1
 220 80 l 1xb0
 229.973 60.0547 240 22.2998 240 0 c 1
 80 0 l 17
 80 480 l 1
 100 480 l 1x50
EndSplineSet
EndChar
StartChar: backslash
Encoding: 92 92 53
Width: 320
Flags: HW
HStem: 0 21G<40 120 200 280> 460 20G<40 120 200 280>
VStem: 40 80<0 76.5312 403.469 480> 200 80<0 76.5312 403.469 480>
LayerCount: 2
Fore
SplineSet
60 350 m 2
 50.0273 369.946 40 407.7 40 430 c 2
 40 480 l 1
 120 480 l 1
 120 430 l 2
 120 417.61 125.569 396.642 131.11 385.56 c 2
 260 130 l 6
 269.973 110.054 280 72.2998 280 50 c 2
 280 0 l 1
 200 0 l 1
 200 50 l 2
 200 62.3896 194.431 83.3584 188.89 94.4404 c 2
 60 350 l 2
EndSplineSet
EndChar
StartChar: underscore
Encoding: 95 95 158
Width: 320
Flags: HW
HStem: 0 80<40 280>
VStem: 40 240<0 80 0 80 1.53064e-18 1.53064e-18>
LayerCount: 2
Fore
SplineSet
40 80 m 29
 280 80 l 29
 280 0 l 29
 40 0 l 29
 40 80 l 29
EndSplineSet
EndChar
StartChar: grave
Encoding: 96 96 73
Width: 320
Flags: HW
HStem: 399.995 120.005<140 179.998 140 140>
VStem: 79.9995 160.001<420 499.995 499.995 499.995>
AnchorPoint: "Top" 200.001 380 mark 0
LayerCount: 2
Fore
SplineSet
240.001 420 m 29
 179.998 399.995 l 29
 79.999 499.995 l 29
 140 520 l 29
 240.001 420 l 29
EndSplineSet
EndChar
StartChar: f
Encoding: 102 102 13
Width: 320
Flags: HW
TeX: 102 0
HStem: 40 21G<120 180> 280 80<60 120 200 260> 440 80<208.265 280>
VStem: 120 80<40 280 360 420>
LayerCount: 2
Fore
SplineSet
120 360 m 5
 120 380 l 6
 120 403.47 132.404 434.404 149 451 c 4
 165.596 467.596 196.53 480 220 480 c 14
 280 480 l 29
 280 400 l 29
 220 400 l 22
 215.31 400 209.216 397.416 205.9 394.1 c 4
 202.584 390.783 200 384.69 200 380 c 6
 200 360 l 5
 280 360 l 5
 280 337.7 269.973 299.946 260 280 c 13
 200 280 l 21
 200 0 l 29
 120 0 l 21
 120 280 l 5
 40 280 l 5
 40 302.3 50.0273 340.054 60 360 c 5
 120 360 l 5
EndSplineSet
EndChar
StartChar: g
Encoding: 103 103 4
Width: 320
Flags: HW
TeX: 103 0
HStem: -120 80<40 191.735> 0 80<128.265 180> 280 80<128.265 180> 340 20G<220 280>
VStem: 40 80<100 271.735> 200 80<-20 360 88.2651 260>
LayerCount: 2
Fore
SplineSet
220 360 m 13xdc
 280 360 l 29xdc
 280 -20 l 22
 280 -43.47 267.596 -74.4042 251 -91 c 4
 234.404 -107.596 203.47 -120 180 -120 c 14
 40 -120 l 29
 40 -40 l 29
 180 -40 l 22
 184.69 -40 190.784 -37.4163 194.1 -34.1 c 4
 197.416 -30.7837 200 -24.69 200 -20 c 14
 200 280 l 22xec
 200 302.3 210.027 340.054 220 360 c 13xdc
EndSplineSet
Refer: 1 111 N 1 0 0 1 0 0 2
EndChar
StartChar: h
Encoding: 104 104 16
Width: 320
Flags: HW
TeX: 104 0
HStem: 0 21G<40 120 40 100 220 280> 280 80<140 191.735> 460 20G<40 120>
VStem: 40 80<0 271.735 0 480> 200 80<0 260>
LayerCount: 2
Fore
SplineSet
40 480 m 29
 120 480 l 29
 120 80 l 22
 120 57.7 109.973 19.9457 100 0 c 13
 40 0 l 29
 40 480 l 29
EndSplineSet
Refer: 15 110 N 1 0 0 1 0 0 2
EndChar
StartChar: i
Encoding: 105 105 23
Width: 320
Flags: HW
HStem: 0 480<215 285 279.819 310.181>
VStem: 175 130<39.1171 80> 175 80<89.0521 360 424.819 455.181>
LayerCount: 2
Fore
SplineSet
160 480 m 4
 169.39 480 181.66 474.939 188.3 468.3 c 4
 194.939 461.66 200 449.39 200 440 c 4
 200 430.61 194.939 418.34 188.3 411.7 c 4
 181.66 405.061 169.39 400 160 400 c 4
 150.61 400 138.34 405.061 131.7 411.7 c 4
 125.061 418.34 120 430.61 120 440 c 4
 120 449.39 125.061 461.66 131.7 468.3 c 4
 138.34 474.939 150.61 480 160 480 c 4
EndSplineSet
Refer: 105 305 S 1 0 0 1 0 0 2
EndChar
StartChar: j
Encoding: 106 106 21
Width: 320
Flags: HW
HStem: -120 80<90 200.948> 340 20G<210 290> 460 20G<245.305 254.695>
VStem: 90 200<-82.2537 -40 -120 440 -40 -40> 210 80<-30.9479 360 424.819 455.181>
LayerCount: 2
Fore
SplineSet
160 480 m 0xe8
 169.39 480 181.66 474.939 188.3 468.3 c 0
 194.939 461.66 200 449.39 200 440 c 0xf0
 200 430.61 194.939 418.34 188.3 411.7 c 0
 181.66 405.061 169.39 400 160 400 c 0
 150.61 400 138.34 405.061 131.7 411.7 c 0
 125.061 418.34 120 430.61 120 440 c 0
 120 449.39 125.061 461.66 131.7 468.3 c 0
 138.34 474.939 150.61 480 160 480 c 0xe8
120 360 m 25xe8
 200 360 l 25
 200 -20 l 18
 200 -43.4697 187.596 -74.4043 171 -91 c 0
 154.404 -107.596 123.47 -120 100 -120 c 10
 0 -120 l 21
 0 -97.7002 10.0273 -59.9453 20 -40 c 13xf0
 100 -40 l 18
 104.69 -40 110.784 -37.416 114.1 -34.0996 c 0
 117.416 -30.7842 120 -24.6904 120 -20 c 10
 120 360 l 25xe8
EndSplineSet
EndChar
StartChar: l
Encoding: 108 108 22
Width: 320
Flags: HW
HStem: 0 480<238.027 280 280 310 280 280>
VStem: 200 130<39.1171 80> 200 80<89.0521 480>
LayerCount: 2
Fore
SplineSet
200 480 m 29xa0
 200 100 l 22xa0
 200 95.3096 202.584 89.2158 205.9 85.9004 c 4
 209.216 82.584 215.31 80 220 80 c 14
 250 80 l 21xc0
 250 57.7002 239.973 19.9453 230 0 c 13
 220 0 l 22
 196.53 0 165.896 12.7041 149.3 29.2998 c 4
 132.704 45.8955 120 76.5303 120 100 c 14
 120 480 l 29
 200 480 l 29xa0
EndSplineSet
EndChar
StartChar: m
Encoding: 109 109 19
Width: 320
Flags: HW
TeX: 109 0
HStem: 120 360<-80.385 -40 40 82.254 -20 40 20 20> 400 80<-30.947 30.983>
VStem: -120 240<120 380 120 380 80 140> -120 80<120 390.947> 40 80<120 390.914>
CounterMasks: 1 00
AnchorPoint: "Top" 160 380 basemark 0
LayerCount: 2
Fore
SplineSet
160 120 m 13x88
 160 260 l 22
 160 264.69 157.334 270.704 154.1 274.1 c 4
 150.865 277.496 144.69 280 140 280 c 14
 140 280 l 18x48
 140 280 129.217 277.416 125.9 274.1 c 0
 122.584 270.783 120 264.69 120 260 c 10
 120 0 l 25x98
 40 0 l 1
 40 260 l 18
 40 283.47 54.4043 314.404 71 331 c 0
 112.972 372.972 132.177 369.823 171 331 c 4
 187.596 314.404 200 283.47 200 260 c 14
 200 120 l 21xa0
 160 120 l 13x88
240 0 m 13x88
 240 260 l 22
 240 264.69 237.334 270.704 234.1 274.1 c 4
 230.865 277.496 224.69 280 220 280 c 14
 220 280 l 22x48
 220 280 209.217 277.416 205.9 274.1 c 4
 202.584 270.783 200 264.69 200 260 c 14
 200 120 l 29x98
 160 120 l 5
 160 260 l 22
 160 283.47 174.404 314.404 191 331 c 4
 231 371 266.342 355.658 291 331 c 4
 307.596 314.404 320 283.47 320 260 c 14
 320 0 l 21xa0
 240 0 l 13x88
EndSplineSet
EndChar
StartChar: n
Encoding: 110 110 15
Width: 320
Flags: HW
TeX: 110 0
HStem: 0 360<79.615 120 200 242.254 140 200 180 180> 280 80<129.053 190.983>
VStem: 40 240<0 260 0 260 -40 20> 40 80<0 270.947> 200 80<0 270.914>
AnchorPoint: "Top" 160 380 basemark 0
LayerCount: 2
Fore
SplineSet
200 0 m 9x88
 200 260 l 22
 200 264.69 197.334 270.704 194.1 274.1 c 0
 190.865 277.496 184.69 280 180 280 c 10
 140 280 l 18x48
 135.311 280.041 129.217 277.416 125.9 274.1 c 0
 122.584 270.783 120 264.69 120 260 c 10
 120 0 l 25x98
 40 0 l 1
 40 260 l 18
 40 283.47 54.4043 314.404 71 331 c 0
 87.5957 347.596 116.53 360 140 360 c 10
 180 360 l 18
 203.47 360 234.404 347.596 251 331 c 0
 267.596 314.404 280 283.47 280 260 c 10
 280 0 l 17xa0
 200 0 l 9x88
EndSplineSet
EndChar
StartChar: o
Encoding: 111 111 1
Width: 320
Flags: W
TeX: 111 0
HStem: 0 80<129.053 190.926> 280 80<129.053 190.983>
VStem: 40 80<89.0525 270.947> 200 80<89.0299 270.914>
AnchorPoint: "Top" 160 380 basemark 0
LayerCount: 2
Fore
SplineSet
140 280 m 22
 135.311 280.041 129.217 277.416 125.9 274.1 c 4
 122.584 270.783 120 264.69 120 260 c 14
 120 100 l 22
 120 95.3096 122.584 89.2168 125.9 85.9004 c 4
 129.217 82.584 135.31 80 140 80 c 14
 180 80 l 22
 184.69 80 190.732 82.6357 194.1 85.9004 c 4
 197.468 89.1641 200 95.3096 200 100 c 14
 200 260 l 22
 200 264.69 197.334 270.704 194.1 274.1 c 4
 190.865 277.496 184.69 280 180 280 c 14
 140 280 l 22
140 360 m 14
 180 360 l 22
 203.47 360 234.404 347.596 251 331 c 4
 267.596 314.404 280 283.47 280 260 c 14
 280 100 l 22
 280 76.5303 267.596 45.5957 251 29 c 4
 234.404 12.4043 203.47 0 180 0 c 14
 140 0 l 22
 116.53 0 87.5957 14.4043 71 31 c 4
 54.4043 47.5957 40 76.5303 40 100 c 14
 40 260 l 22
 40 283.47 54.4043 314.404 71 331 c 4
 87.5957 347.596 116.53 360 140 360 c 14
EndSplineSet
EndChar
StartChar: p
Encoding: 112 112 5
Width: 320
Flags: HW
TeX: 112 0
HStem: -120 21G<40 120> 0 80<128.265 180> 280 80<128.265 180> 340 20G<40 100>
VStem: 40 80<-120 360 100 271.735> 200 80<88.2651 260>
LayerCount: 2
Fore
SplineSet
40 360 m 29xdc
 100 360 l 21xdc
 109.973 340.054 120 302.3 120 280 c 14xec
 120 -120 l 29
 40 -120 l 29
 40 360 l 29xdc
EndSplineSet
Refer: 1 111 N 1 0 0 1 0 0 2
EndChar
StartChar: q
Encoding: 113 113 6
Width: 320
Flags: HW
TeX: 113 0
HStem: -120 21G<200 280> 0 80<128.265 180> 280 80<128.265 180> 340 20G<220 280>
VStem: 40 80<100 271.735> 200 80<-120 360 88.2651 260>
LayerCount: 2
Fore
SplineSet
220 360 m 9xdc
 280 360 l 25xdc
 280 -120 l 25
 200 -120 l 25
 200 280 l 22xec
 200 302.3 210.027 340.054 220 360 c 9xdc
EndSplineSet
Refer: 1 111 N 1 0 0 1 0 0 2
EndChar
StartChar: r
Encoding: 114 114 20
Width: 320
Flags: HW
TeX: 114 0
HStem: 0 21G<40 120 40 120> 280 80<140 191.735>
VStem: 40 80<0 360>
LayerCount: 2
Fore
SplineSet
40 360 m 25
 100 360 l 17
 109.973 340.054 120 302.3 120 280 c 10
 120 0 l 25
 40 0 l 25
 40 360 l 25
280 260 m 13
 200 260 l 22
 195.31 260 197.334 270.704 194.1 274.1 c 4
 190.865 277.496 184.69 280 180 280 c 14
 140 280 l 22
 135.311 280.041 129.217 277.416 125.9 274.1 c 4
 122.584 270.783 120 264.69 120 260 c 14
 120 0 l 29
 40 0 l 5
 40 260 l 22
 40 283.47 54.4043 314.404 71 331 c 4
 87.5957 347.596 116.53 360 140 360 c 14
 180 360 l 22
 203.47 360 234.404 347.596 251 331 c 4
 267.596 314.404 280 283.47 280 260 c 13
EndSplineSet
EndChar
StartChar: s
Encoding: 115 115 31
Width: 320
Flags: HW
HStem: 0 80<50 189.67> 280 80<130.329 260>
VStem: 30 250<32.2548 80>
AnchorPoint: "Top" 160 380 basemark 0
LayerCount: 2
Fore
SplineSet
260 280 m 9
 140 280 l 17
 135.31 280 129.176 276.456 125.86 273.14 c 1
 122.544 269.824 120 264.65 120 260 c 1
 120 259.416 122.051 248.527 125.86 245.86 c 1
 129.148 242.572 234.114 187.306 250.71 170.71 c 1
 267.306 154.114 280 123.47 280 100 c 1
 280 76.53 267.306 38.8858 250.71 22.29 c 1
 234.114 5.69421 203.47 0 180 0 c 9
 50 0 l 17
 40.0273 19.9453 30 57.7002 30 80 c 9
 180 80 l 17
 184.69 80 190.823 83.5439 194.14 86.8604 c 1
 197.456 90.1768 200 95.3496 200 100 c 1
 200 100.584 197.949 111.473 194.14 114.14 c 1
 190.852 117.428 85.8857 172.694 69.29 189.29 c 1
 52.6943 205.886 40 236.53 40 260 c 1
 40 283.47 52.6943 321.114 69.29 337.71 c 1
 85.8857 354.306 116.53 360 140 360 c 9
 280 360 l 17
 280 337.7 269.973 299.946 260 280 c 9
EndSplineSet
EndChar
StartChar: t
Encoding: 116 116 14
Width: 320
Flags: HW
TeX: 116 0
HStem: 0 80<208.265 280> 280 80<60 120 200 260> 460 20G<120 200>
VStem: 120 80<100 280 360 480>
LayerCount: 2
Fore
SplineSet
200 360 m 29
 280 360 l 21
 280 337.7 269.973 299.946 260 280 c 5
 200 280 l 5
 200 100 l 6
 200 95.3096 202.584 89.2168 205.9 85.9004 c 4
 209.216 82.584 215.31 80 220 80 c 14
 280 80 l 29
 280 0 l 29
 220 0 l 22
 196.53 0 165.596 12.4043 149 29 c 4
 132.404 45.5957 120 76.5303 120 100 c 6
 120 280 l 5
 40 280 l 5
 40 302.3 50.0272 340.054 60 360 c 5
 120 360 l 5
 120 480 l 13
 200 480 l 29
 200 360 l 29
EndSplineSet
EndChar
StartChar: u
Encoding: 117 117 18
Width: 320
Flags: HW
TeX: 117 0
HStem: 0 80<129.017 190.947> 340 20G<40 120 200 280>
VStem: 40 80<89.0865 360> 200 80<57.7 360 0 360 49 80>
AnchorPoint: "Top" 160 380 basemark 0
LayerCount: 2
Fore
SplineSet
200 360 m 25
 280 360 l 25
 280 0 l 25
 220 0 l 17
 210.027 19.9457 200 57.7 200 80 c 10
 200 360 l 25
120 360 m 13
 120 100 l 18
 120 95.3096 122.666 89.2959 125.9 85.9004 c 0
 129.135 82.5039 135.31 80 140 80 c 10
 180 80 l 18
 184.689 79.959 190.783 82.584 194.1 85.9004 c 0
 197.416 89.2168 200 95.3096 200 100 c 10
 200 360 l 25
 280 360 l 1
 280 100 l 18
 280 76.5303 265.596 45.5957 249 29 c 0
 232.404 12.4043 203.47 0 180 0 c 10
 140 0 l 18
 116.53 0 85.5957 12.4043 69 29 c 0
 52.4043 45.5957 40 76.5303 40 100 c 10
 40 360 l 17
 120 360 l 13
EndSplineSet
EndChar
StartChar: v
Encoding: 118 118 28
Width: 320
Flags: HW
HStem: 0 360<40 180 40 40>
VStem: 40 80<217.29 360> 200 80<217.01 360>
LayerCount: 2
Fore
SplineSet
40 360 m 25
 120 360 l 25
 120 240 l 17
 120 227.61 125.569 206.642 131.11 195.56 c 9
 160 137.78 l 1
 189 195 l 5
 194.541 206.082 200 227.61 200 240 c 9
 200 360 l 25
 280 360 l 25
 280 240 l 17
 280 217.7 269.973 179.946 260 160 c 9
 180 0 l 25
 140 0 l 25
 60 160 l 17
 50.0272 179.946 40 217.7 40 240 c 9
 40 360 l 25
EndSplineSet
EndChar
StartChar: w
Encoding: 119 119 29
Width: 320
Flags: HW
HStem: -160 360<-40 220 -40 -40>
VStem: -40 80<57.2895 200> 120 40<57.2894 120> 240 80<57.0096 200>
CounterMasks: 1 70
LayerCount: 2
Fore
SplineSet
240 360 m 5
 320 360 l 5
 320 160 l 5
 320 137.7 309.973 99.9453 300 80 c 6
 260 0 l 5
 220 0 l 5
 180 80 l 5
 140 0 l 5
 100 0 l 5
 60 80 l 6
 50.0273 99.9463 40 137.7 40 160 c 6
 40 360 l 5
 120 360 l 5
 120 137.78 l 5
 149 195 l 6
 154.541 206.082 160 227.61 160 240 c 6
 160 280 l 5
 200 280 l 5
 200 240 l 6
 200 227.61 205.569 206.642 211.11 195.56 c 6
 240 137.78 l 5
 240 360 l 5
EndSplineSet
EndChar
StartChar: x
Encoding: 120 120 30
Width: 320
VWidth: 0
Flags: W
HStem: 0 360<215 295 215 215>
LayerCount: 2
Fore
SplineSet
295 0 m 29
 215 0 l 29
 125 180 l 29
 215 360 l 29
 295 360 l 29
 205 180 l 29
 295 0 l 29
25 360 m 25
 105 360 l 25
 195 180 l 25
 105 0 l 25
 25 0 l 25
 115 180 l 25
 25 360 l 25
EndSplineSet
EndChar
StartChar: z
Encoding: 122 122 27
Width: 320
Flags: HW
HStem: 0 80<100 110 131.11 270 30 290 100 100> 280 80<40 214>
AnchorPoint: "Top" 160 380 basemark 0
LayerCount: 2
Fore
SplineSet
100 80 m 25
 290 80 l 17
 290 57.7002 279.973 19.9453 270 0 c 9
 100 0 l 25
 100 80 l 25
30 0 m 17
 160 260 l 18
 171.18 282.361 212.322 342.322 230 360 c 9
 280 300 l 17
 264.232 284.232 231.095 244.38 221.11 224.44 c 9
 131.11 44.44 l 17
 125.569 33.358 110 0 110 0 c 25
 30 0 l 17
200 280 m 25
 40 280 l 25
 40 360 l 25
 280 360 l 25
 280 300 l 25
 200 280 l 25
EndSplineSet
EndChar
StartChar: braceleft
Encoding: 123 123 161
Width: 320
Flags: HW
HStem: -50 40<209.053 280> 210 40<40 40 40 77.5596> 470 40<209.053 280>
VStem: 120 80<-3.94214 10 10 116.89 343.11 463.942>
CounterMasks: 1 e0
LayerCount: 2
Fore
SplineSet
120 100 m 2
 120 118.78 109.839 164.92 96.5596 184.84 c 1
 83.2812 204.76 58.7803 220 40 220 c 1
 40 260 l 1
 77.5596 260 126.561 249.679 153.12 223.12 c 0
 179.679 196.561 200 147.56 200 110 c 2
 200 20 l 2
 200 15.3096 202.584 9.2168 205.9 5.90039 c 0
 209.217 2.58398 215.31 0 220 0 c 10
 280 0 l 17
 280 -40 l 9
 220 -40 l 18
 196.53 -40 167.596 -25.5957 151 -9 c 0
 134.404 7.5957 120 36.5303 120 60 c 2
 120 100 l 2
120 420 m 2
 120 443.47 134.404 474.404 151 491 c 0
 167.596 507.596 196.53 520 220 520 c 10
 280 520 l 17
 280 480 l 9
 220 480 l 18
 215.311 480 209.217 477.416 205.9 474.1 c 0
 202.584 470.783 200 464.69 200 460 c 2
 200 370 l 6
 200 332.44 179.679 283.438 153.12 256.88 c 4
 126.561 230.321 77.5596 220 40 220 c 1
 40 260 l 1
 58.7803 260 83.2812 275.24 96.5596 295.16 c 1
 109.839 315.08 120 361.22 120 380 c 2
 120 420 l 2
EndSplineSet
EndChar
StartChar: bar
Encoding: 124 124 66
Width: 320
Flags: HW
HStem: -40 560<120 200 120 200 120 120>
VStem: 120 80<-40 520>
LayerCount: 2
Fore
SplineSet
200 520 m 25
 200 -40 l 29
 120 -40 l 29
 120 520 l 25
 200 520 l 25
EndSplineSet
EndChar
StartChar: cent
Encoding: 162 162 164
Width: 320
Flags: HW
HStem: 0 21G<135.014 184.986> 80 80<120 228.486> 360 80<120 200 200 227.009>
VStem: 40 80<169.053 350.947> 120 80<51.5139 160 360 468.486>
LayerCount: 2
Fore
SplineSet
120 360 m 17
 120 440 l 1
 120 462.3 130.027 500.055 140 520 c 9
 180 520 l 17
 189.973 500.055 200 462.3 200 440 c 1
 200 360 l 9
 120 360 l 17
200 160 m 17
 200 80 l 1
 200 57.7002 189.973 19.9453 180 0 c 9
 140 0 l 17
 130.027 19.9453 120 57.7002 120 80 c 1
 120 160 l 9
 200 160 l 17
280 100 m 17
 260.055 90.0273 222.3 80 200 80 c 10
 140 80 l 18
 116.53 80 87.5957 94.4043 71 111 c 0
 54.4043 127.596 40 156.53 40 180 c 10
 40 340 l 18
 40 363.47 54.4043 394.404 71 411 c 0
 87.5957 427.596 116.53 440 140 440 c 10
 200 440 l 22
 222.3 440 259.56 428.915 280 420 c 13
 254.2 348.5 l 17
 242.843 353.453 222.39 360 210 360 c 10
 140 360 l 18
 135.311 360 129.217 357.416 125.9 354.1 c 0
 122.584 350.783 120 344.69 120 340 c 10
 120 180 l 18
 120 175.31 122.584 169.217 125.9 165.9 c 0
 129.217 162.584 135.31 160 140 160 c 10
 200 160 l 18
 222.3 160 260.055 170.027 280 180 c 1
 280 100 l 17
EndSplineSet
EndChar
StartChar: sterling
Encoding: 163 163 190
Width: 320
Flags: HW
HStem: 0 480<382.44 410 410 420 283.12 400> 0 80<180 200.707 220 221.413 293.12 410> 400 80<399.293 460>
VStem: 260 80<139.293 340.707>
LayerCount: 2
Fore
SplineSet
40 280 m 25x60
 320 280 l 25
 320 200 l 25x50
 40 200 l 25
 40 280 l 25x60
30 80 m 9x50
 320 80 l 17x50
 320 57.7002 309.973 19.9453 300 0 c 9x90
 50 0 l 17
 40.0273 19.9453 30 57.7002 30 80 c 9x50
200 160 m 1
 200 122.44 179.679 73.4385 153.12 46.8799 c 0
 126.561 20.3213 87.5596 0 50 0 c 1
 40 80 l 1x70
 58.7803 80 83.2812 90.1602 96.5596 103.44 c 1
 109.839 116.719 120 141.22 120 160 c 1
 120 320 l 1
 120 357.56 140.321 406.561 166.88 433.12 c 0
 193.439 459.679 242.44 480 280 480 c 1x90
 320 480 l 5
 320 457.7 309.973 419.946 300 400 c 5
 280 400 l 1x30
 261.22 400 236.719 389.839 223.44 376.56 c 1
 210.161 363.281 200 338.78 200 320 c 1
 200 160 l 1
EndSplineSet
EndChar
StartChar: currency
Encoding: 264 164 191
Width: 320
VWidth: 0
Flags: HW
HStem: 120 40<116.53 140 180 203.47> 280 40<161 190.983> 320 40<116.53 140>
VStem: 40 80<209.053 270.947> 200 80<209.03 270.913>
LayerCount: 2
Fore
SplineSet
140 280 m 18
 135.311 280.041 129.217 277.416 125.9 274.1 c 0
 122.584 270.783 120 264.69 120 260 c 10
 120 220 l 18
 120 215.31 122.584 209.217 125.9 205.9 c 0
 129.217 202.584 135.31 200 140 200 c 10
 180 200 l 18
 184.69 200 190.732 202.636 194.1 205.9 c 0
 197.468 209.164 200 215.31 200 220 c 10
 200 260 l 18
 200 264.69 197.334 270.704 194.1 274.1 c 0
 190.865 277.496 184.69 280 180 280 c 10
 140 280 l 18
140 360 m 10
 180 360 l 18
 203.47 360 234.404 347.596 251 331 c 0
 267.596 314.404 280 283.47 280 260 c 10
 280 220 l 18
 280 196.53 267.596 165.596 251 149 c 0
 234.404 132.404 203.47 120 180 120 c 10
 140 120 l 18
 116.53 120 87.5957 134.404 71 151 c 0
 54.4043 167.596 40 196.53 40 220 c 10
 40 260 l 18
 40 283.47 54.4043 314.404 71 331 c 0
 87.5957 347.596 116.53 360 140 360 c 10
236 320 m 5
 161 320 l 5
 215 440 l 13
 290 440 l 21
 236 320 l 5
236 320 m 1025
236 160 m 1
 290 40 l 9
 215 40 l 17
 161 160 l 1
 236 160 l 1
161 160 m 1025
161 320 m 1025
159 320 m 1025
159 160 m 1025
84 160 m 1
 159 160 l 1
 105 40 l 9
 30 40 l 17
 84 160 l 1
84 160 m 1025
84 320 m 1
 30 440 l 9
 105 440 l 17
 159 320 l 1
 84 320 l 1
EndSplineSet
EndChar
StartChar: yen
Encoding: 165 165 159
Width: 320
Flags: HW
HStem: -160 21G<120 200> 40 80<40 280> 300 20G<120 200>
VStem: 120 80<-160 320>
LayerCount: 2
Fore
SplineSet
40 120 m 29
 280 120 l 29
 280 80 l 29
 40 80 l 29
 40 120 l 29
40 200 m 29
 280 200 l 29
 280 160 l 29
 40 160 l 29
 40 200 l 29
EndSplineSet
Refer: 36 89 N 1 0 0 1 0 0 2
EndChar
StartChar: section
Encoding: 167 167 188
Width: 320
Flags: HW
HStem: -120 80<89.0527 150.983> 40 80<89.0525 100 100 163.47> 240 40<120 163.47> 400 21G<200 280> 440 80<129.017 190.947>
VStem: 0 80<-30.9475 0 129.053 190.947> 40 80<397.348 435.394> 160 80<-35.3937 2.65211 129.03 190.913>
LayerCount: 2
Fore
SplineSet
100 280 m 5xfb
 60 360 l 6
 50.0273 379.945 40 397.7 40 420 c 5
 40 443.47 52.4043 474.404 69 491 c 4
 85.5957 507.596 116.53 520 140 520 c 14
 180 520 l 22
 203.47 520 232.404 507.596 249 491 c 4
 265.596 474.404 280 443.47 280 420 c 14
 280 400 l 29
 200 400 l 29
 200 420 l 22
 200 424.69 197.416 430.783 194.1 434.1 c 4
 190.783 437.416 184.689 440.041 180 440 c 14
 140 440 l 22
 135.31 440 129.135 437.496 125.9 434.1 c 4
 122.666 430.704 120 424.69 120 420 c 5
 120 407.61 125.569 386.642 131.11 375.56 c 4
 180 280 l 5
 100 280 l 5xfb
140 280 m 22
 135.311 280.041 129.217 277.416 125.9 274.1 c 4
 122.584 270.783 120 264.69 120 260 c 14
 120 220 l 22xfd
 120 215.31 122.584 209.217 125.9 205.9 c 4
 129.217 202.584 135.31 200 140 200 c 14
 180 200 l 22
 184.69 200 190.732 202.636 194.1 205.9 c 4
 197.468 209.164 200 215.31 200 220 c 14
 200 260 l 22
 200 264.69 197.334 270.704 194.1 274.1 c 4
 190.865 277.496 184.69 280 180 280 c 14
 140 280 l 22
140 360 m 14
 180 360 l 22
 203.47 360 234.404 347.596 251 331 c 4
 267.596 314.404 280 283.47 280 260 c 14
 280 220 l 22
 280 196.53 267.596 165.596 251 149 c 4
 234.404 132.404 203.47 120 180 120 c 14
 140 120 l 22
 116.53 120 87.5957 134.404 71 151 c 4
 54.4043 167.596 40 196.53 40 220 c 14
 40 260 l 22
 40 283.47 54.4043 314.404 71 331 c 4
 87.5957 347.596 116.53 360 140 360 c 14
220 200 m 5
 260 120 l 6
 269.973 100.055 280 82.2998 280 60 c 5
 280 36.5303 267.596 5.5957 251 -11 c 4
 234.404 -27.5957 203.47 -40 180 -40 c 14
 140 -40 l 22
 116.53 -40 87.5957 -27.5957 71 -11 c 4
 54.4043 5.5957 40 36.5303 40 60 c 14
 40 80 l 29
 120 80 l 29
 120 60 l 22
 120 55.3096 122.584 49.2168 125.9 45.9004 c 4
 129.217 42.584 135.311 39.959 140 40 c 14
 180 40 l 22
 184.69 40 190.865 42.5039 194.1 45.9004 c 4
 197.334 49.2959 200 55.3096 200 60 c 5
 200 72.3896 194.431 93.3584 188.89 104.44 c 4
 140 200 l 5
 220 200 l 5
EndSplineSet
EndChar
StartChar: registered
Encoding: 174 174 174
Width: 320
Flags: HW
HStem: 0 40<115.239 140 140 244.744> 118.027 10.5<114.999 154.999> 318.027 40<154.999 190.06> 440 40<115.239 140 140 244.744>
VStem: 40 40<133.11 346.89> 114.999 40<118.027 218.027 258.027 318.027> 194.999 40<262.973 314.56> 280 40<133.11 346.89>
LayerCount: 2
Fore
SplineSet
160 440 m 1
 141.22 440 116.719 424.76 103.44 404.84 c 1
 90.1611 384.92 80 338.78 80 320 c 2
 80 160 l 2
 80 141.22 90.1611 95.0801 103.44 75.1602 c 1
 116.719 55.2402 141.22 40 160 40 c 1
 200 40 l 1
 218.78 40 243.281 55.2402 256.56 75.1602 c 1
 269.839 95.0801 280 141.22 280 160 c 2
 280 320 l 2
 280 338.78 269.839 384.92 256.56 404.84 c 1
 243.281 424.76 218.78 440 200 440 c 1
 160 440 l 1
140 480 m 10
 220 480 l 18
 243.47 480 274.404 467.596 291 451 c 0
 307.596 434.404 320 403.47 320 380 c 10
 320 100 l 18
 320 76.5303 307.596 45.5957 291 29 c 0
 274.404 12.4043 243.47 0 220 0 c 10
 140 0 l 18
 116.53 0 87.5957 14.4043 71 31 c 0
 54.4043 47.5957 40 76.5303 40 100 c 10
 40 380 l 18
 40 403.47 54.4043 434.404 71 451 c 0
 87.5957 467.596 116.53 480 140 480 c 10
EndSplineSet
Refer: 39 82 N 0.5 0 0 0.5 94.9993 118.027 2
EndChar
StartChar: cedilla
Encoding: 259 184 132
Width: 320
Flags: HW
VStem: 93.333 120 133.333 80<-13.9445 0 0 60>
AnchorPoint: "Bottom" 160 40 mark 0
LayerCount: 2
Fore
SplineSet
120 40 m 5
 200 40 l 5
 200 17.7002 189.973 -20.0547 180 -40 c 6
 160 -80 l 5
 80 -80 l 5
 100 -40 l 6
 109.99 -20.0605 120 17.7002 120 40 c 5
EndSplineSet
EndChar
StartChar: Aring
Encoding: 197 197 96
Width: 320
VWidth: 0
Flags: HW
LayerCount: 2
Fore
SplineSet
280 0 m 1
 200 0 l 1
 200 160 l 1
 120 160 l 1
 120 0 l 1
 40 0 l 1
 40 340 l 2
 40 362.3 52.6943 394.114 69.29 410.71 c 2
 140 480 l 1
 180 480 l 1
 250.71 410.71 l 2
 267.306 394.114 280 363.47 280 340 c 2
 280 0 l 1
120 240 m 1
 200 240 l 1
 200 340 l 2
 200 352.39 197.456 350.823 194.14 354.14 c 2
 160 394.14 l 1
 125.86 354.14 l 2
 122.544 350.823 124.69 340 120 340 c 1
 120 240 l 1
142 600 m 18
 131.543 600.092 122 590.55 122 580 c 0
 122 578 124.621 560 142 560 c 10
 182 560 l 18
 199.395 560 202 578 202 580 c 0
 202 590.393 192.642 600 182 600 c 10
 142 600 l 18
82 580 m 0
 82 603.68 114.64 639.2 148.8 639.2 c 10
 173.2 639.2 l 18
 210.04 639.2 242 603.68 242 580 c 0
 242 558 208.2 520.8 173.2 520.8 c 14
 148.8 520.8 l 18
 119.12 520.8 82 556.32 82 580 c 0
EndSplineSet
EndChar
StartChar: AE
Encoding: 198 198 165
Width: 320
Flags: HW
HStem: 0 21G<-80 0 80 160> 0 80<140 320> 0 480<80 160 100 160 80 80> 240 80<0 80 160 260> 400 80<160 300> 460 20G<-0.410004 94.637>
VStem: -80 80<0 240 320 340> 80 80<0 240 0 240 320 400 320 401.983> 120 220<51.5139 80>
LayerCount: 2
Fore
SplineSet
180 480 m 1x90
 240 480 l 1x90
 320 480 l 5
 320 457.7 309.973 419.945 300 400 c 5
 240 400 l 1
 240 320 l 1
 320 320 l 1
 320 297.7 309.973 259.945 300 240 c 1
 240 240 l 1x70
 240 0 l 1
 160 0 l 1
 160 480 l 1
 180 480 l 1x90
200 80 m 9x84
 330 80 l 21
 330 57.7002 319.973 19.9453 310 0 c 13
 220 0 l 17
 210.027 19.9453 200 57.7002 200 80 c 9x84
240 0 m 1x83
 160 0 l 1
 160 240 l 1
 120 240 l 1
 120 0 l 1
 40 0 l 1
 40 340 l 2
 40 362.3 52.6943 394.114 69.29 410.71 c 2
 140 480 l 1x97
 160 480 l 1x23
 210.71 410.71 l 2
 227.306 394.114 240 363.47 240 340 c 2
 240 0 l 1x83
120 320 m 1
 160 320 l 1
 160 340 l 2
 160 352.39 160 354.14 160 354.14 c 25
 160 387.14 l 1
 125.86 354.14 l 2
 122.544 350.823 124.69 340 120 340 c 1
 120 320 l 1
EndSplineSet
EndChar
StartChar: Eth
Encoding: 208 208 166
Width: 320
Flags: HW
HStem: -40 480<-80 0 0 37.56 -80 0 -80 -80> 200 80<-80 160>
VStem: -80 80<40 200 280 360> -80 240<200 280 280 280 200 280> 80 80<99.2933 300.707>
LayerCount: 2
Fore
SplineSet
0 280 m 29x60
 160 280 l 29
 160 200 l 29x50
 0 200 l 29
 0 280 l 29x60
280 160 m 2x48
 280 122.44 259.679 73.4389 233.12 46.88 c 0
 206.561 20.3211 157.56 0 120 0 c 2xa8
 40 0 l 1
 40 480 l 1x90
 120 480 l 1xa0
 157.56 480 206.561 459.679 233.12 433.12 c 0
 259.679 406.561 280 357.56 280 320 c 2x50
 280 160 l 2x48
120 80 m 1
 138.78 80 163.281 90.1605 176.56 103.44 c 1
 189.839 116.719 200 141.22 200 160 c 2
 200 320 l 2x68
 200 338.78 189.839 363.281 176.56 376.56 c 1
 163.281 389.839 138.78 400 120 400 c 2
 120 80 l 1
EndSplineSet
EndChar
StartChar: Thorn
Encoding: 222 222 186
Width: 320
Flags: HW
HStem: 80 80<88.265 140> 480 80<88.265 140>
VStem: 0 80<180 471.735> 160 80<168.265 460>
LayerCount: 2
Fore
SplineSet
120 480 m 5
 120 400 l 1
 180 400 l 2
 203.47 400 234.404 387.596 251 371 c 0
 267.596 354.404 280 323.47 280 300 c 2
 280 180 l 2
 280 156.53 267.596 125.596 251 109 c 0
 234.404 92.4043 203.47 80 180 80 c 2
 120 80 l 1
 120 0 l 1
 40 0 l 1
 40 260 l 1
 40 380 l 1
 40 480 l 1
 120 480 l 5
120 320 m 1
 120 160 l 1
 180 160 l 2
 184.69 160 190.732 162.636 194.1 165.9 c 0
 197.467 169.165 200 175.31 200 180 c 2
 200 300 l 2
 200 304.69 197.334 310.704 194.1 314.1 c 0
 190.865 317.496 184.69 320 180 320 c 2
 120 320 l 1
EndSplineSet
EndChar
StartChar: germandbls
Encoding: 223 223 184
Width: 320
Flags: W
HStem: 0 80<170 229.671> 400 80<129.052 230.983>
VStem: 40 80<0 390.947> 240 80<85.0709 119.123 360 390.913>
LayerCount: 2
Fore
SplineSet
140 400 m 18
 135.31 400 129.216 397.416 125.9 394.1 c 0
 122.584 390.783 120 384.69 120 380 c 2
 120 360 l 1
 120 0 l 25
 40 0 l 17
 40 360 l 1
 40 380 l 2
 40 403.47 52.4043 434.404 69 451 c 0
 85.5957 467.596 116.53 480 140 480 c 10
 220 480 l 18
 243.47 480 274.404 467.596 291 451 c 0
 307.596 434.404 320 403.47 320 380 c 10
 320 360 l 1
 320 337.7 309.973 299.946 300 280 c 9
 220 280 l 17
 215.31 280 209.176 276.456 205.86 273.14 c 1
 202.544 269.824 200 264.65 200 260 c 1
 200 259.416 202.051 248.527 205.86 245.86 c 1
 209.148 242.572 274.114 187.306 290.71 170.71 c 5
 307.306 154.114 320 123.47 320 100 c 5
 320 76.5303 307.306 38.8857 290.71 22.29 c 5
 274.114 5.69434 243.47 0 220 0 c 13
 170 0 l 21
 160.027 19.9453 150 57.7002 150 80 c 13
 220 80 l 21
 224.69 80 230.823 83.5439 234.14 86.8604 c 5
 237.456 90.1768 240 95.3496 240 100 c 5
 240 100.584 237.949 111.473 234.14 114.14 c 5
 230.852 117.428 165.886 172.694 149.29 189.29 c 1
 132.694 205.886 120 236.53 120 260 c 1
 120 283.47 132.694 321.114 149.29 337.71 c 1
 165.886 354.306 196.53 360 220 360 c 1
 240 360 l 1
 240 380 l 18
 240 384.69 237.334 390.704 234.1 394.1 c 0
 230.865 397.496 224.69 400 220 400 c 10
 140 400 l 18
EndSplineSet
EndChar
StartChar: ae
Encoding: 230 230 150
Width: 320
Flags: HW
HStem: 0 80<9.05299 70.926 169.053 268.486> 160 80<9.05299 70.983 160 240> 280 80<-20 70.948 169.053 230.983>
VStem: -80 80<89.0525 150.947> 80 80<41.5191 100 100 283.47>
AnchorPoint: "Top" 160 380 basemark 0
LayerCount: 2
Fore
SplineSet
140 0 m 2
 116.53 0 87.5957 14.4043 71 31 c 0
 54.4043 47.5957 40 76.5303 40 100 c 2
 40 140 l 2
 40 163.47 54.4043 194.404 71 211 c 0
 87.5957 227.596 140 240 140 240 c 2
 140 240 l 2
 146.272 240 153.078 239.114 160 237.499 c 1
 160 260 l 2
 160 264.69 157.416 270.784 154.1 274.1 c 0
 150.784 277.416 144.69 280 140 280 c 2
 100 280 l 1
 90.0272 299.946 80 337.7 80 360 c 1
 140 360 l 2
 159.299 360 220 360 220 360 c 6
 243.47 360 274.404 347.596 291 331 c 4
 307.596 314.404 320 283.47 320 260 c 6
 320 160 l 5
 200 160 l 1
 200 140 l 1
 200 100 l 2
 200 95.3096 202.584 89.2168 205.9 85.9004 c 0
 209.217 82.584 215.31 80 220 80 c 2
 240 80 l 6
 262.3 80 300.06 90.0146 320 100 c 5
 320 20 l 5
 300.054 10.0273 262.3 0 240 0 c 6
 140 0 l 2
240 240 m 5
 240 260 l 6
 240 264.69 237.334 270.704 234.1 274.1 c 4
 230.865 277.496 224.69 280 220 280 c 6
 220 280 l 2
 220 280 209.217 277.416 205.9 274.1 c 0
 202.584 270.783 200 264.69 200 260 c 2
 200 240 l 1
 240 240 l 5
140 160 m 2
 140 160 129.217 157.416 125.9 154.1 c 0
 122.584 150.783 120 144.69 120 140 c 2
 120 100 l 2
 120 95.3096 122.584 89.2168 125.9 85.9004 c 0
 129.217 82.584 140 80 140 80 c 2
 140 80 l 2
 144.69 80 150.731 82.6357 154.1 85.9004 c 0
 157.468 89.1641 160 95.3096 160 100 c 2
 160 140 l 2
 160 144.69 157.334 150.704 154.1 154.1 c 0
 150.865 157.496 144.69 160 140 160 c 2
 140 160 l 2
EndSplineSet
EndChar
StartChar: eth
Encoding: 240 240 148
Width: 320
Flags: HW
HStem: 0 80<129.053 190.983> 200 80<129.053 190.926> 400 80<80 140.707>
VStem: 40 80<89.0525 190.947> 200 80<89.0865 120 120 184.69 251 340.707>
CounterMasks: 1 e0
LayerCount: 2
Fore
SplineSet
80 340 m 25
 220 480 l 25
 280.001 459.995 l 25
 140.002 319.995 l 25
 80 340 l 25
140 80 m 14
 180 80 l 22
 184.69 80 190.865 82.5039 194.1 85.9004 c 4
 197.334 89.2959 200 95.3096 200 100 c 14
 200 180 l 18
 200 184.69 197.468 190.836 194.1 194.1 c 0
 190.732 197.364 184.69 200 180 200 c 10
 140 200 l 18
 135.31 200 129.217 197.416 125.9 194.1 c 0
 122.584 190.783 120 184.69 120 180 c 10
 120 100 l 22
 120 95.3096 122.584 89.2168 125.9 85.9004 c 4
 129.217 82.584 135.311 79.959 140 80 c 14
140 0 m 22
 116.53 0 87.5957 12.4043 71 29 c 4
 54.4043 45.5957 40 76.5303 40 100 c 14
 40 180 l 18
 40 203.47 54.4043 232.404 71 249 c 0
 87.5957 265.596 116.53 280 140 280 c 10
 180 280 l 18
 203.47 280 234.404 267.596 251 251 c 0
 267.596 234.404 280 203.47 280 180 c 10
 280 100 l 22
 280 76.5303 267.596 45.5957 251 29 c 4
 234.404 12.4043 203.47 0 180 0 c 14
 140 0 l 22
280 320 m 2
 280 120 l 25
 200 220 l 25
 200 320 l 18
 200 338.78 189.839 363.281 176.56 376.56 c 1
 163.281 389.84 138.78 400 120 400 c 1
 80 400 l 25
 80 480 l 17
 120 480 l 1
 157.56 480 206.561 459.679 233.12 433.12 c 0
 259.679 406.562 279.624 357.559 280 320 c 2
EndSplineSet
EndChar
StartChar: divide
Encoding: 247 247 147
Width: 320
VWidth: 960
Flags: HW
LayerCount: 2
Fore
SplineSet
160 400 m 4
 169.39 400 181.66 394.939 188.3 388.3 c 4
 194.939 381.66 200 369.39 200 360 c 4
 200 350.61 194.939 338.34 188.3 331.7 c 4
 181.66 325.061 169.39 320 160 320 c 4
 150.61 320 138.34 325.061 131.7 331.7 c 4
 125.061 338.34 120 350.61 120 360 c 4
 120 369.39 125.061 381.66 131.7 388.3 c 4
 138.34 394.939 150.61 400 160 400 c 4
160 160 m 0
 169.39 160 181.66 154.939 188.3 148.3 c 0
 194.939 141.66 200 129.39 200 120 c 0
 200 110.61 194.939 98.3398 188.3 91.7002 c 0
 181.66 85.0605 169.39 80 160 80 c 0
 150.61 80 138.34 85.0605 131.7 91.7002 c 0
 125.061 98.3398 120 110.61 120 120 c 0
 120 129.39 125.061 141.66 131.7 148.3 c 0
 138.34 154.939 150.61 160 160 160 c 0
EndSplineSet
Refer: 63 45 N 1 0 0 1 0 0 2
EndChar
StartChar: oslash
Encoding: 248 248 168
Width: 320
Flags: HW
HStem: 12 336<20 300 300 300> 40 80<128.265 180> 320 80<128.265 180>
VStem: 20 280<68 348 68 68> 40 80<140 311.735> 200 80<128.265 300>
LayerCount: 2
Fore
SplineSet
20 68 m 29x90
 300 348 l 29
 300 292 l 29
 20 12 l 29
 20 68 l 29x90
EndSplineSet
Refer: 1 111 N 1 0 0 1 0 0 2
EndChar
StartChar: thorn
Encoding: 254 254 185
Width: 320
Flags: HW
HStem: 0 21G<40 120> 120 80<128.265 180> 400 80<128.265 180> 460 20G<40 100>
VStem: 40 80<0 480 220 391.735> 200 80<208.265 380>
LayerCount: 2
Fore
SplineSet
40 480 m 29xdc
 100 480 l 21xdc
 109.973 460.054 120 422.3 120 400 c 14xec
 120 -120 l 25
 40 -120 l 25
 40 480 l 29xdc
EndSplineSet
Refer: 1 111 N 1 0 0 1 0 0 2
EndChar
StartChar: dotlessi
Encoding: 258 305 105
Width: 320
Flags: HW
HStem: 0 360<228.027 270 270 310 270 270>
VStem: 190 140<39.1171 80> 190 80<89.0521 360>
AnchorPoint: "Top" 160 380 basemark 0
LayerCount: 2
Fore
SplineSet
200 360 m 29xa0
 200 100 l 22xa0
 200 95.3096 202.584 89.2158 205.9 85.9004 c 4
 209.216 82.584 215.31 80 220 80 c 14
 250 80 l 21xc0
 250 57.7002 239.973 19.9453 230 0 c 13
 220 0 l 22
 196.53 0 165.896 12.7041 149.3 29.2998 c 4
 132.704 45.8955 120 76.5303 120 100 c 14
 120 360 l 29
 200 360 l 29xa0
EndSplineSet
EndChar
StartChar: OE
Encoding: 188 338 194
Width: 320
Flags: W
HStem: 0 80<123.665 155.4 240 310> 0 480<160 240 180 240 100 183.47> 240 80<240 300> 400 80<123.665 155.428 240 300>
VStem: 40 80<89.0525 390.947> 40 290<76.5303 80> 160 80<29 240 240 320 320 403.47> 200 40<37.7381 80>
LayerCount: 2
Fore
SplineSet
180 480 m 1x42
 240 480 l 1x41
 320 480 l 1
 320 457.7 309.973 419.945 300 400 c 1
 240 400 l 1
 240 320 l 1
 320 320 l 5
 320 297.7 309.973 259.945 300 240 c 5
 240 240 l 1x32
 240 0 l 1xb1
 160 0 l 1
 160 480 l 1
 180 480 l 1x42
200 80 m 9x81
 330 80 l 17
 330 57.7002 319.973 19.9453 310 0 c 9x84
 220 0 l 17x44
 210.027 19.9453 200 57.7002 200 80 c 9x81
140 400 m 2x9a
 140 400 129.217 397.416 125.9 394.1 c 0
 122.584 390.783 120 384.69 120 380 c 10
 120 100 l 18
 120 95.3096 122.584 89.2168 125.9 85.9004 c 0
 129.217 82.584 140 80 140 80 c 2
 144.69 80 150.732 82.6357 154.1 85.9004 c 0
 157.468 89.1641 160 95.3096 160 100 c 10
 160 380 l 18
 160 384.69 157.334 390.704 154.1 394.1 c 0
 150.865 397.496 144.69 400 140 400 c 2x9a
140 480 m 2x4a
 163.47 480 194.404 467.596 211 451 c 0
 227.596 434.404 240 403.47 240 380 c 10
 240 100 l 18
 240 76.5303 227.596 45.5957 211 29 c 0
 194.404 12.4043 163.47 0 140 0 c 2x8a
 140 0 87.5957 14.4043 71 31 c 0
 54.4043 47.5957 40 76.5303 40 100 c 10
 40 380 l 18
 40 403.47 54.4043 434.404 71 451 c 0
 87.5957 467.596 140 480 140 480 c 2x4a
EndSplineSet
EndChar
StartChar: oe
Encoding: 189 339 193
Width: 320
Flags: HW
LayerCount: 2
Fore
SplineSet
240 200 m 4
 240 260 l 6
 240 264.69 237.334 270.704 234.1 274.1 c 4
 230.865 277.496 224.69 280 220 280 c 14
 220 280 l 18
 220 280 209.217 277.416 205.9 274.1 c 0
 202.584 270.783 200 264.69 200 260 c 2
 200 200 l 0
 240 200 l 4
220 360 m 22
 243.47 360 274.404 347.596 291 331 c 4
 307.596 314.404 320 283.47 320 260 c 6
 320 160 l 4
 200 160 l 0
 200 100 l 2
 200 95.3096 202.584 89.2168 205.9 85.9004 c 0
 209.217 82.584 215.31 80 220 80 c 10
 240 80 l 22
 262.3 80 300.06 90.0146 320 100 c 5
 320 20 l 5
 300.054 10.0273 262.3 0 240 0 c 14
 140 0 l 18
 116.53 0 87.5957 14.4043 71 31 c 0
 54.4043 47.5957 40 76.5303 40 100 c 10
 40 260 l 18
 40 283.47 54.4043 314.404 71 331 c 0
 87.5957 347.596 116.53 360 140 360 c 10
 220 360 l 22
160 100 m 10
 160 260 l 1042
140 280 m 18
 140 280 129.217 277.416 125.9 274.1 c 0
 122.584 270.783 120 264.69 120 260 c 10
 120 100 l 18
 120 95.3096 122.584 89.2168 125.9 85.9004 c 0
 129.217 82.584 140 80 140 80 c 10
 140 80 l 18
 144.69 80 150.732 82.6357 154.1 85.9004 c 0
 157.468 89.1641 160 95.3096 160 100 c 10
 160 260 l 18
 160 264.69 157.334 270.704 154.1 274.1 c 0
 150.865 277.496 144.69 280 140 280 c 10
 140 280 l 18
200 260 m 10
 200 100 l 1042
EndSplineSet
EndChar
StartChar: uni2010
Encoding: 266 8208 202
Width: 320
VWidth: 960
Flags: HW
HStem: -40 21G<80 160> 160 80<0 240> 420 20G<80 160>
VStem: 80 80<-40 440>
LayerCount: 2
Fore
SplineSet
80 240 m 29
 240 240 l 29
 240 160 l 29
 80 160 l 29
 80 240 l 29
EndSplineSet
EndChar
StartChar: endash
Encoding: 269 8211 205
Width: 320
VWidth: 960
Flags: HW
HStem: 0 21G<160 240> 200 80<80 320> 460 20G<160 240>
VStem: 160 80<0 480>
LayerCount: 2
Fore
SplineSet
40 280 m 25
 320 280 l 29
 320 200 l 29
 40 200 l 25
 40 280 l 25
EndSplineSet
EndChar
StartChar: emdash
Encoding: 270 8212 206
Width: 320
VWidth: 960
Flags: HW
HStem: 0 21G<200 280> 200 80<120 360> 460 20G<200 280>
VStem: 200 80<0 480>
LayerCount: 2
Fore
SplineSet
40 280 m 29
 320 280 l 25
 320 200 l 25
 40 200 l 29
 40 280 l 29
EndSplineSet
EndChar
StartChar: afii00208
Encoding: 271 8213 207
Width: 320
VWidth: 960
Flags: HW
HStem: 200 80<-200 360>
VStem: -200 560<200 280 200 280 200 200>
LayerCount: 2
Fore
SplineSet
40 280 m 29
 320 280 l 25
 320 200 l 25
 40 200 l 29
 40 280 l 29
EndSplineSet
EndChar
StartChar: uni2016
Encoding: 272 8214 208
Width: 320
Flags: HW
HStem: -40 560<40 120 40 120 40 40>
VStem: 40 80<-40 520>
LayerCount: 2
Fore
SplineSet
120 520 m 29
 120 -40 l 29
 40 -40 l 29
 40 520 l 29
 120 520 l 29
280 520 m 25
 280 -40 l 25
 200 -40 l 25
 200 520 l 25
 280 520 l 25
EndSplineSet
EndChar
StartChar: quoteleft
Encoding: 274 8216 210
Width: 320
Flags: HW
HStem: 320 160<120 160>
VStem: 80 120<320 440 440 440> 80 80<411.514 480>
LayerCount: 2
Fore
SplineSet
160 480 m 21xa0
 160 440 l 5xa0
 160 417.7 170.01 379.939 180 360 c 5
 200 320 l 5
 120 320 l 5
 100 360 l 5
 90.0273 379.945 80 417.7 80 440 c 5xc0
 80 480 l 13
 160 480 l 21xa0
EndSplineSet
EndChar
StartChar: quotesinglbase
Encoding: 276 8218 212
Width: 320
Flags: W
HStem: -13.7822 207.114<106.733 173.4 195.668 233.4>
VStem: 106.733 120 146.733 80<66.0555 80 102.268 140 140 140>
AnchorPoint: "Bottom" 93.4004 120 mark 0
LayerCount: 2
Fore
SplineSet
226.733 140 m 5xa0
 226.733 102.44 206.412 53.4385 179.854 26.8799 c 4
 162.122 9.14844 134.388 -5.80273 106.733 -13.7822 c 5xc0
 106.733 8.51758 116.761 40.0547 126.733 60 c 5
 131.424 60 137.466 62.6357 140.833 65.9004 c 4
 144.201 69.1641 146.309 75.3291 146.733 80 c 14
 146.733 140 l 29
 226.733 140 l 5xa0
173.4 193.332 m 4
 185.92 193.332 202.28 186.585 211.133 177.732 c 4
 219.985 168.88 226.732 152.52 226.732 140 c 4
 226.732 127.48 219.985 111.12 211.133 102.268 c 4
 202.28 93.415 185.92 86.668 173.4 86.668 c 4
 160.881 86.668 144.521 93.415 135.668 102.268 c 4
 126.815 111.12 120.068 127.48 120.068 140 c 4
 120.068 152.52 126.815 168.88 135.668 177.732 c 4
 144.521 186.585 160.881 193.332 173.4 193.332 c 4
EndSplineSet
EndChar
StartChar: dagger
Encoding: 282 8224 218
Width: 320
VWidth: 960
Flags: HW
HStem: 120 80<40 280>
VStem: 120 80<0 320>
LayerCount: 2
Fore
SplineSet
40 400 m 25
 280 400 l 25
 280 320 l 25
 40 320 l 25
 40 400 l 25
200 520 m 25
 200 0 l 25
 120 0 l 25
 120 520 l 25
 200 520 l 25
EndSplineSet
EndChar
StartChar: daggerdbl
Encoding: 283 8225 219
Width: 320
VWidth: 960
Flags: HW
HStem: 120 80<40 280>
VStem: 120 80<0 320>
LayerCount: 2
Fore
SplineSet
40 400 m 29
 280 400 l 29
 280 320 l 29
 40 320 l 29
 40 400 l 29
40 200 m 29
 280 200 l 29
 280 120 l 29
 40 120 l 29
 40 200 l 29
200 520 m 29
 200 0 l 29
 120 0 l 29
 120 520 l 29
 200 520 l 29
EndSplineSet
EndChar
StartChar: bullet
Encoding: 284 8226 220
Width: 320
Flags: HW
HStem: 159.996 40.0039<129.052 190.926> 280 40.0039<129.053 190.983>
VStem: 79.9961 40.0039<209.053 270.947> 200 40.0039<209.03 270.914>
LayerCount: 2
Fore
SplineSet
146.666 320.004 m 14
 173.334 320.004 l 22
 188.981 320.004 207.605 311.734 218.67 300.67 c 4
 229.734 289.605 238.004 268.981 238.004 253.334 c 14
 240.004 226.666 l 22
 241.174 211.062 229.734 190.395 218.67 179.33 c 4
 207.605 168.266 188.981 159.996 173.334 159.996 c 14
 146.666 159.996 l 22
 131.019 159.996 111.729 169.6 100.664 180.664 c 4
 89.5996 191.729 79.9961 211.019 79.9961 226.666 c 14
 79.9961 253.334 l 22
 79.9961 268.981 91.5996 289.605 102.664 300.67 c 4
 113.729 311.734 131.019 320.004 146.666 320.004 c 14
EndSplineSet
EndChar
StartChar: uni2023
Encoding: 285 8227 221
Width: 320
Flags: HW
HStem: 120 280<80 80 80 80>
VStem: 80 160<260 400 400 400>
LayerCount: 2
Fore
SplineSet
80 400 m 29
 240 260 l 29
 80 120 l 29
 80 400 l 29
EndSplineSet
EndChar
StartChar: ellipsis
Encoding: 288 8230 224
Width: 320
Flags: MW
HStem: 6.66797 106.664<22.313 57.687 142.313 177.687 262.313 297.687>
LayerCount: 2
Fore
SplineSet
280 113.332 m 4
 292.52 113.332 308.88 106.585 317.732 97.7324 c 4
 326.585 88.8799 333.332 72.5195 333.332 60 c 4
 333.332 47.4805 326.585 31.1201 317.732 22.2676 c 4
 308.88 13.415 292.52 6.66797 280 6.66797 c 4
 267.48 6.66797 251.12 13.415 242.268 22.2676 c 4
 233.415 31.1201 226.668 47.4805 226.668 60 c 4
 226.668 72.5195 233.415 88.8799 242.268 97.7324 c 4
 251.12 106.585 267.48 113.332 280 113.332 c 4
160 113.332 m 0
 172.52 113.332 188.88 106.585 197.732 97.7324 c 0
 206.585 88.8799 213.332 72.5195 213.332 60 c 0
 213.332 47.4805 206.585 31.1201 197.732 22.2676 c 0
 188.88 13.415 172.52 6.66797 160 6.66797 c 0
 147.48 6.66797 131.12 13.415 122.268 22.2676 c 0
 113.415 31.1201 106.668 47.4805 106.668 60 c 0
 106.668 72.5195 113.415 88.8799 122.268 97.7324 c 0
 131.12 106.585 147.48 113.332 160 113.332 c 0
40 113.332 m 0
 52.5195 113.332 68.8799 106.585 77.7324 97.7324 c 0
 86.585 88.8799 93.332 72.5195 93.332 60 c 0
 93.332 47.4805 86.585 31.1201 77.7324 22.2676 c 0
 68.8799 13.415 52.5195 6.66797 40 6.66797 c 0
 27.4805 6.66797 11.1201 13.415 2.26758 22.2676 c 0
 -6.58496 31.1201 -13.332 47.4805 -13.332 60 c 0
 -13.332 72.5195 -6.58496 88.8799 2.26758 97.7324 c 0
 11.1201 106.585 27.4805 113.332 40 113.332 c 0
EndSplineSet
EndChar
StartChar: perthousand
Encoding: 290 8240 226
Width: 320
Flags: HW
HStem: 90 26.667<268.686 291.313> 163.333 26.667<268.686 291.315> 370 26.667<108.686 131.313> 443.333 26.667<108.686 131.315>
VStem: 80 26.667<398.686 441.314> 133.333 26.667<398.685 441.313> 240 26.667<118.686 161.314> 293.333 26.667<118.685 161.313>
LayerCount: 2
Fore
SplineSet
273.333 163.333 m 22
 271.771 163.347 269.739 162.472 268.634 161.366 c 4
 267.528 160.261 266.667 158.229 266.667 156.667 c 14
 266.667 123.333 l 22
 266.667 121.771 267.528 119.739 268.634 118.634 c 4
 269.739 117.528 271.771 116.667 273.333 116.667 c 14
 286.667 116.667 l 22
 288.229 116.667 290.244 117.546 291.366 118.634 c 4
 292.489 119.722 293.333 121.771 293.333 123.333 c 14
 293.333 156.667 l 22
 293.333 158.229 292.444 160.234 291.366 161.366 c 4
 290.288 162.499 288.229 163.333 286.667 163.333 c 14
 273.333 163.333 l 22
273.333 190 m 14
 286.667 190 l 22
 294.49 190 304.802 185.865 310.333 180.334 c 4
 315.865 174.802 320 164.49 320 156.667 c 14
 320 123.333 l 22
 320 115.51 315.865 105.198 310.333 99.666 c 4
 304.802 94.1348 294.49 90 286.667 90 c 14
 273.333 90 l 22
 265.51 90 255.865 94.8008 250.333 100.333 c 4
 244.801 105.865 240 115.51 240 123.333 c 14
 240 156.667 l 22
 240 164.49 244.801 174.802 250.333 180.334 c 4
 255.865 185.865 265.51 190 273.333 190 c 14
153.333 163.333 m 22
 151.771 163.347 149.739 162.472 148.634 161.366 c 4
 147.528 160.261 146.667 158.229 146.667 156.667 c 14
 146.667 123.333 l 22
 146.667 121.771 147.528 119.739 148.634 118.634 c 4
 149.739 117.528 151.771 116.667 153.333 116.667 c 14
 166.667 116.667 l 22
 168.229 116.667 170.244 117.546 171.366 118.634 c 4
 172.489 119.722 173.333 121.771 173.333 123.333 c 14
 173.333 156.667 l 22
 173.333 158.229 172.444 160.234 171.366 161.366 c 4
 170.288 162.499 168.229 163.333 166.667 163.333 c 14
 153.333 163.333 l 22
153.333 190 m 14
 166.667 190 l 22
 174.49 190 184.802 185.865 190.333 180.334 c 4
 195.865 174.802 200 164.49 200 156.667 c 14
 200 123.333 l 22
 200 115.51 195.865 105.198 190.333 99.666 c 4
 184.802 94.1348 174.49 90 166.667 90 c 14
 153.333 90 l 22
 145.51 90 135.865 94.8008 130.333 100.333 c 4
 124.801 105.865 120 115.51 120 123.333 c 14
 120 156.667 l 22
 120 164.49 124.801 174.802 130.333 180.334 c 4
 135.865 185.865 145.51 190 153.333 190 c 14
33.333 443.333 m 18
 31.7705 443.347 29.7393 442.472 28.6338 441.366 c 0
 27.5283 440.261 26.667 438.229 26.667 436.667 c 10
 26.667 403.333 l 18
 26.667 401.771 27.5283 399.739 28.6338 398.634 c 0
 29.7393 397.528 31.7705 396.667 33.333 396.667 c 10
 46.667 396.667 l 18
 48.2295 396.667 50.2441 397.546 51.3662 398.634 c 0
 52.4893 399.722 53.333 401.771 53.333 403.333 c 10
 53.333 436.667 l 18
 53.333 438.229 52.4443 440.234 51.3662 441.366 c 0
 50.2881 442.499 48.2295 443.333 46.667 443.333 c 10
 33.333 443.333 l 18
33.333 470 m 10
 46.667 470 l 18
 54.4902 470 64.8018 465.865 70.333 460.334 c 0
 75.8652 454.802 80 444.49 80 436.667 c 10
 80 403.333 l 18
 80 395.51 75.8652 385.198 70.333 379.666 c 0
 64.8018 374.135 54.4902 370 46.667 370 c 10
 33.333 370 l 18
 25.5098 370 15.8652 374.801 10.333 380.333 c 0
 4.80078 385.865 0 395.51 0 403.333 c 10
 0 436.667 l 18
 0 444.49 4.80078 454.802 10.333 460.334 c 0
 15.8652 465.865 25.5098 470 33.333 470 c 10
220 390 m 2
 91.1104 134.44 l 2
 85.5693 123.358 80 102.39 80 90 c 2
 80 80 l 1
 0 80 l 1
 0 90 l 2
 0 112.3 10.0273 150.054 20 170 c 2
 148.89 425.56 l 2
 154.431 436.642 160 457.61 160 470 c 2
 160 480 l 1
 240 480 l 1
 240 470 l 2
 240 447.7 229.973 409.946 220 390 c 2
EndSplineSet
EndChar
StartChar: uni2031
Encoding: 291 8241 227
Width: 320
Flags: HW
HStem: 10 26.667<268.686 291.313> 83.333 26.667<268.686 291.315> 130 26.667<148.686 171.313 268.686 291.313> 203.333 26.667<148.686 171.315 268.686 291.315> 410 26.667<28.6863 51.313> 483.333 26.667<28.6863 51.315>
VStem: 0 26.667<438.686 481.314> 53.333 26.667<438.685 481.313> 120 26.667<158.686 201.314> 173.333 26.667<158.685 201.313> 240 26.667<38.6863 81.3137 158.686 201.314> 293.333 26.667<38.6855 81.3125 158.685 201.313>
LayerCount: 2
Fore
SplineSet
273.333 83.333 m 22
 271.771 83.3467 269.739 82.4717 268.634 81.3662 c 4
 267.528 80.2607 266.667 78.2285 266.667 76.667 c 14
 266.667 43.333 l 22
 266.667 41.7715 267.528 39.7393 268.634 38.6338 c 4
 269.739 37.5283 271.771 36.667 273.333 36.667 c 14
 286.667 36.667 l 22
 288.229 36.667 290.244 37.5459 291.366 38.6338 c 4
 292.489 39.7217 293.333 41.7715 293.333 43.333 c 14
 293.333 76.667 l 22
 293.333 78.2285 292.444 80.2344 291.366 81.3662 c 4
 290.288 82.499 288.229 83.333 286.667 83.333 c 14
 273.333 83.333 l 22
273.333 110 m 14
 286.667 110 l 22
 294.49 110 304.802 105.865 310.333 100.334 c 4
 315.865 94.8018 320 84.4902 320 76.667 c 14
 320 43.333 l 22
 320 35.5098 315.865 25.1982 310.333 19.666 c 4
 304.802 14.1348 294.49 10 286.667 10 c 14
 273.333 10 l 22
 265.51 10 255.865 14.8008 250.333 20.333 c 4
 244.801 25.8652 240 35.5098 240 43.333 c 14
 240 76.667 l 22
 240 84.4902 244.801 94.8018 250.333 100.334 c 4
 255.865 105.865 265.51 110 273.333 110 c 14
273.333 243.333 m 22
 271.771 243.347 269.739 242.472 268.634 241.366 c 4
 267.528 240.261 266.667 238.229 266.667 236.667 c 14
 266.667 203.333 l 22
 266.667 201.771 267.528 199.739 268.634 198.634 c 4
 269.739 197.528 271.771 196.667 273.333 196.667 c 14
 286.667 196.667 l 22
 288.229 196.667 290.244 197.546 291.366 198.634 c 4
 292.489 199.722 293.333 201.771 293.333 203.333 c 14
 293.333 236.667 l 22
 293.333 238.229 292.444 240.234 291.366 241.366 c 4
 290.288 242.499 288.229 243.333 286.667 243.333 c 14
 273.333 243.333 l 22
273.333 270 m 14
 286.667 270 l 22
 294.49 270 304.802 265.865 310.333 260.334 c 4
 315.865 254.802 320 244.49 320 236.667 c 14
 320 203.333 l 22
 320 195.51 315.865 185.198 310.333 179.666 c 4
 304.802 174.135 294.49 170 286.667 170 c 14
 273.333 170 l 22
 265.51 170 255.865 174.801 250.333 180.333 c 4
 244.801 185.865 240 195.51 240 203.333 c 14
 240 236.667 l 22
 240 244.49 244.801 254.802 250.333 260.334 c 4
 255.865 265.865 265.51 270 273.333 270 c 14
153.333 163.333 m 18
 151.771 163.347 149.739 162.472 148.634 161.366 c 0
 147.528 160.261 146.667 158.229 146.667 156.667 c 10
 146.667 123.333 l 18
 146.667 121.771 147.528 119.739 148.634 118.634 c 0
 149.739 117.528 151.771 116.667 153.333 116.667 c 10
 166.667 116.667 l 18
 168.229 116.667 170.244 117.546 171.366 118.634 c 0
 172.489 119.722 173.333 121.771 173.333 123.333 c 10
 173.333 156.667 l 18
 173.333 158.229 172.444 160.234 171.366 161.366 c 0
 170.288 162.499 168.229 163.333 166.667 163.333 c 10
 153.333 163.333 l 18
153.333 190 m 10
 166.667 190 l 18
 174.49 190 184.802 185.865 190.333 180.334 c 0
 195.865 174.802 200 164.49 200 156.667 c 10
 200 123.333 l 18
 200 115.51 195.865 105.198 190.333 99.666 c 0
 184.802 94.1348 174.49 90 166.667 90 c 10
 153.333 90 l 18
 145.51 90 135.865 94.8008 130.333 100.333 c 0
 124.801 105.865 120 115.51 120 123.333 c 10
 120 156.667 l 18
 120 164.49 124.801 174.802 130.333 180.334 c 0
 135.865 185.865 145.51 190 153.333 190 c 10
33.333 443.333 m 18
 31.7705 443.347 29.7393 442.472 28.6338 441.366 c 0
 27.5283 440.261 26.667 438.229 26.667 436.667 c 10
 26.667 403.333 l 18
 26.667 401.771 27.5283 399.739 28.6338 398.634 c 0
 29.7393 397.528 31.7705 396.667 33.333 396.667 c 10
 46.667 396.667 l 18
 48.2295 396.667 50.2441 397.546 51.3662 398.634 c 0
 52.4893 399.722 53.333 401.771 53.333 403.333 c 10
 53.333 436.667 l 18
 53.333 438.229 52.4443 440.234 51.3662 441.366 c 0
 50.2881 442.499 48.2295 443.333 46.667 443.333 c 10
 33.333 443.333 l 18
33.333 470 m 10
 46.667 470 l 18
 54.4902 470 64.8018 465.865 70.333 460.334 c 0
 75.8652 454.802 80 444.49 80 436.667 c 10
 80 403.333 l 18
 80 395.51 75.8652 385.198 70.333 379.666 c 0
 64.8018 374.135 54.4902 370 46.667 370 c 10
 33.333 370 l 18
 25.5098 370 15.8652 374.801 10.333 380.333 c 0
 4.80078 385.865 0 395.51 0 403.333 c 10
 0 436.667 l 18
 0 444.49 4.80078 454.802 10.333 460.334 c 0
 15.8652 465.865 25.5098 470 33.333 470 c 10
220 390 m 2
 91.1104 134.44 l 2
 85.5693 123.358 80 102.39 80 90 c 2
 80 80 l 1
 0 80 l 1
 0 90 l 2
 0 112.3 10.0273 150.054 20 170 c 2
 148.89 425.56 l 2
 154.431 436.642 160 457.61 160 470 c 2
 160 480 l 1
 240 480 l 1
 240 470 l 2
 240 447.7 229.973 409.946 220 390 c 2
EndSplineSet
EndChar
StartChar: minute
Encoding: 292 8242 228
Width: 320
VWidth: 0
Flags: W
HStem: 320 120<135 156 81 210 135 135>
LayerCount: 2
Fore
SplineSet
156 320 m 5
 81 320 l 5
 135 440 l 13
 210 440 l 21
 156 320 l 5
EndSplineSet
EndChar
StartChar: uni2034
Encoding: 294 8244 230
Width: 320
VWidth: 0
Flags: W
HStem: 240 200<55 236 55 55>
VStem: 1 289<320 360 320 320>
LayerCount: 2
Fore
SplineSet
156 280 m 1
 81 280 l 1
 135 400 l 9
 210 400 l 17
 156 280 l 1
236 240 m 5
 161 240 l 5
 215 360 l 13
 290 360 l 21
 236 240 l 5
76 320 m 1
 1 320 l 1
 55 440 l 9
 130 440 l 17
 76 320 l 1
EndSplineSet
EndChar
StartChar: uni2038
Encoding: 298 8248 234
Width: 320
Flags: HW
HStem: -60 165<140 280 140 140>
VStem: 40 240.001<-60 5 -60 -60>
LayerCount: 2
Fore
SplineSet
280.001 5 m 1
 280 -60 l 5
 160 59.9941 l 5
 40 -60 l 5
 40 5 l 1
 140 105 l 1
 180.001 105 l 1
 280.001 5 l 1
EndSplineSet
EndChar
StartChar: guilsinglleft
Encoding: 299 8249 235
Width: 320
VWidth: 820
Flags: HW
HStem: 159.997 240.003<129.999 210.001 210.001 210.001>
VStem: 29.999 180.002<259.997 400 259.997 259.997>
LayerCount: 2
Fore
SplineSet
129.999 399.998 m 1
 210.001 400 l 5
 90.0049 279.997 l 1
 210.001 160 l 1
 129.999 159.997 l 1
 29.999 259.997 l 1
 29.999 299.998 l 1
 129.999 399.998 l 1
EndSplineSet
EndChar
StartChar: Euro
Encoding: 164 8364 201
Width: 320
Flags: HW
HStem: 40 80<129.053 228.486> 200 40<20 180> 280 40<20 210> 400 80<129.053 230.971>
VStem: 40 80<129.053 390.947>
AnchorPoint: "Bottom" 160 0 basemark 0
LayerCount: 2
Fore
SplineSet
280 60 m 17
 260.055 50.0273 222.3 40 200 40 c 10
 140 40 l 18
 116.53 40 87.5957 54.4043 71 71 c 0
 54.4043 87.5957 40 116.53 40 140 c 10
 40 380 l 18
 40 403.47 54.4043 434.404 71 451 c 0
 87.5957 467.596 116.53 480 140 480 c 10
 210 480 l 18
 232.3 480 269.56 468.915 290 460 c 9
 254.2 388.5 l 17
 242.843 393.453 222.39 400 210 400 c 10
 140 400 l 18
 135.311 400 129.217 397.416 125.9 394.1 c 0
 122.584 390.783 120 384.69 120 380 c 10
 120 140 l 18
 120 135.31 122.584 129.217 125.9 125.9 c 0
 129.217 122.584 135.31 120 140 120 c 10
 200 120 l 18
 222.3 120 260.055 130.027 280 140 c 1
 280 60 l 17
20 240 m 25
 200 240 l 25
 180 200 l 25
 0 200 l 25
 20 240 l 25
20 320 m 25
 230 320 l 29
 210 280 l 29
 0 280 l 25
 20 320 l 25
EndSplineSet
EndChar
